<svg xmlns="http://www.w3.org/2000/svg" viewBox="0 0 384 384"><defs><style>.cls-1{fill:#6d6d6d;}.cls-2{fill:#fff;}</style></defs><g id="Layer_2" data-name="Layer 2"><g id="Layer_1-2" data-name="Layer 1"><path class="cls-1" d="M205.5,384h-27c-4.3-.56-8.62-1.05-12.91-1.68-37.47-5.5-70.78-20.26-99.32-45.18-34-29.65-55.22-66.65-63.28-111-1.22-6.71-2-13.51-3-20.26v-27c.56-4.31,1.05-8.63,1.68-12.92,5.41-37,19.7-70.26,44.62-98.25C93.73,14.43,153.37-7.17,223.86,3.41c43.12,6.48,79.51,27,109.15,59a186.82,186.82,0,0,1,48,96.64c1.16,6.59,2,13.24,2.95,19.87v27c-.82,6-1.46,12.08-2.5,18.07-7.54,43-27.2,79.59-59.32,109.27A187.49,187.49,0,0,1,225.78,381C219.05,382.22,212.26,383,205.5,384ZM77.28,225.32c0,2.62-.11,5.24,0,7.85a39.47,39.47,0,0,0,.79,5.93c6.25,30.54,23.72,52.13,53.25,62.25,30.23,10.37,58.35,4.5,81.58-17.54,26.73-25.34,52.68-51.52,78.31-78,16.5-17,20.31-37.8,12.07-59.93-14.53-39-64.25-49.33-94.33-19.92-15.9,15.54-31.51,31.36-47.23,47.08-7.24,7.24-14.71,14.28-21.57,21.86-8.55,9.45-10.65,20.75-6.85,32.79a34,34,0,0,0,55.53,14.73c8.81-8.12,17-16.85,25.53-25.33q16.29-16.28,32.56-32.6c3.15-3.15,4.43-6.84,3.12-11.24s-4.44-6.85-8.83-7.61-7.67,1.22-10.66,4.21q-27.5,27.6-55.09,55.11c-5.86,5.85-13,6.22-18.27,1.07-5.08-5-4.75-12.62.83-18.26,3-3,6-6,9-9q28.38-28.32,56.74-56.65c8.6-8.61,18.92-12.62,30.94-10.77,14.31,2.2,24.26,10.4,28.68,24.21,4.36,13.61,1.26,26-8.84,36.15-25.26,25.42-50.47,50.9-76.15,75.9-15.44,15-34.32,20.1-55.29,14.72C98.84,271,84,216.51,116.1,184c16.77-17,33.74-33.72,50.63-50.57,11.93-11.91,23.91-23.77,35.76-35.76,4.79-4.83,4.78-11.71.31-16.07s-11-4.14-15.75.61c-29.19,29.09-58.46,58.1-87.44,87.4C84.44,184.93,77.26,203.79,77.28,225.32Z"/><path class="cls-2" d="M384,178.88c-1-6.63-1.79-13.28-2.95-19.87a186.82,186.82,0,0,0-48-96.64c-29.64-32-66-52.48-109.15-59C153.37-7.17,93.73,14.43,46.3,67.71,21.38,95.7,7.09,128.93,1.68,166,1.05,170.25.56,174.57,0,178.88V0H384Z"/><path class="cls-2" d="M0,205.83c1,6.75,1.77,13.55,3,20.26,8.06,44.4,29.32,81.4,63.28,111,28.54,24.92,61.85,39.68,99.32,45.18,4.29.63,8.61,1.12,12.91,1.68H0Z"/><path class="cls-2" d="M205.5,384c6.76-1,13.55-1.78,20.28-3a187.49,187.49,0,0,0,96.4-47.86C354.3,303.49,374,266.92,381.5,223.9c1-6,1.68-12.05,2.5-18.07V384Z"/><path class="cls-2" d="M77.28,225.32c0-21.53,7.16-40.39,22.33-55.72,29-29.3,58.25-58.31,87.44-87.4,4.77-4.75,11.33-4.91,15.75-.61s4.48,11.24-.31,16.07c-11.85,12-23.83,23.85-35.76,35.76C149.84,150.27,132.87,167,116.1,184c-32.15,32.52-17.26,87,27,98.36,21,5.38,39.85.3,55.29-14.72,25.68-25,50.89-50.48,76.15-75.9,10.1-10.17,13.2-22.54,8.84-36.15-4.42-13.81-14.37-22-28.68-24.21-12-1.85-22.34,2.16-30.94,10.77q-28.32,28.38-56.74,56.65c-3,3-6,6-9,9-5.58,5.64-5.91,13.29-.83,18.26,5.27,5.15,12.41,4.78,18.27-1.07q27.57-27.51,55.09-55.11c3-3,6.33-5,10.66-4.21s7.51,3.19,8.83,7.61,0,8.09-3.12,11.24q-16.26,16.32-32.56,32.6c-8.48,8.48-16.72,17.21-25.53,25.33a34,34,0,0,1-55.53-14.73c-3.8-12-1.7-23.34,6.85-32.79,6.86-7.58,14.33-14.62,21.57-21.86C177.47,157.34,193.08,141.52,209,126c30.08-29.41,79.8-19,94.33,19.92,8.24,22.13,4.43,42.9-12.07,59.93-25.63,26.46-51.58,52.64-78.31,78-23.23,22-51.35,27.91-81.58,17.54-29.53-10.12-47-31.71-53.25-62.25a39.47,39.47,0,0,1-.79-5.93C77.17,230.56,77.28,227.94,77.28,225.32Z"/></g></g></svg>