<svg xmlns="http://www.w3.org/2000/svg" viewBox="0 0 514.23 514.23"><defs><style>.cls-1{fill:#f9f9fa;}.cls-2{fill:#f7f7f8;}.cls-3{fill:#eaeaea;}.cls-4{fill:#bfbfbf;}.cls-5,.cls-8{fill:#d2d1d1;}.cls-6{fill:#fff;}.cls-7{fill:#e6e6e6;}.cls-8{font-size:36.17px;font-family:JosefinSans-Medium, Josefin Sans;font-weight:500;}.cls-9{letter-spacing:-0.01em;}</style></defs><g id="Layer_2" data-name="Layer 2"><g id="Layer_1-2" data-name="Layer 1"><circle class="cls-1" cx="257.12" cy="257.12" r="257.12"/><circle class="cls-2" cx="257.12" cy="257.12" r="235"/><path class="cls-3" d="M295.74,134.63H218.56a6.64,6.64,0,0,0-6.64,6.63V312.8l-.88.27-18.94,5.8a3.54,3.54,0,0,1-4.42-2.35l-56.32-184a3.54,3.54,0,0,1,2.35-4.42l29.18-8.93,84.59-25.89,29.17-8.94a3.54,3.54,0,0,1,4.42,2.34h0l14.4,47Z"/><path class="cls-4" d="M312.58,133.74,295.23,77.07a7.51,7.51,0,0,0-9.38-5h0l-41,12.56-84.58,25.89-41,12.56a7.53,7.53,0,0,0-5,9.39l59.31,193.69a7.52,7.52,0,0,0,9.39,5L211,322.55l.88-.27v-.92l-.88.27-28.38,8.69a6.65,6.65,0,0,1-8.29-4.4l-59.3-193.7a6.63,6.63,0,0,1,4.39-8.28h0l41-12.56,84.58-25.9,41-12.56a6.77,6.77,0,0,1,1.95-.29,6.66,6.66,0,0,1,6.34,4.69l17.27,56.42.27.89h.92Z"/><path class="cls-5" d="M168.15,128.28a4,4,0,0,1-3.8-2.82l-5.7-18.6a4,4,0,0,1,2.64-5h0l77.82-23.82a4,4,0,0,1,5,2.64l5.69,18.61a4,4,0,0,1-2.64,5L169.32,128.1A3.86,3.86,0,0,1,168.15,128.28Z"/><circle class="cls-5" cx="198" cy="82.78" r="8.85"/><circle class="cls-6" cx="198" cy="82.78" r="5.6"/><path class="cls-7" d="M380.43,329.23H230.94a3.76,3.76,0,0,1-3.76-3.76V146.35a3.76,3.76,0,0,1,3.76-3.76H380.43a3.76,3.76,0,0,1,3.76,3.76V325.47A3.76,3.76,0,0,1,380.43,329.23Z"/><path class="cls-4" d="M311.66,133.74h-93.1a7.53,7.53,0,0,0-7.52,7.52V321.63l.88-.27V141.26a6.64,6.64,0,0,1,6.64-6.63h93.37Zm81.16,0H218.56a7.53,7.53,0,0,0-7.52,7.52V343.83a7.53,7.53,0,0,0,7.52,7.52H392.82a7.52,7.52,0,0,0,7.51-7.52V141.26A7.52,7.52,0,0,0,392.82,133.74Zm6.63,210.09a6.63,6.63,0,0,1-6.63,6.63H218.56a6.64,6.64,0,0,1-6.64-6.63V141.26a6.64,6.64,0,0,1,6.64-6.63H392.82a6.63,6.63,0,0,1,6.63,6.63Z"/><path class="cls-5" d="M346.38,153.2H265a4,4,0,0,1-4-4V129.76a4,4,0,0,1,4-4h81.38a4,4,0,0,1,4,4v19.46A4,4,0,0,1,346.38,153.2Z"/><circle class="cls-5" cx="305.69" cy="118.26" r="8.85"/><circle class="cls-6" cx="305.69" cy="118.26" r="5.39"/><text class="cls-8" transform="translate(132.52 406.13)">NO RECORDS<tspan class="cls-9" x="56.44" y="43.4">F</tspan><tspan x="77.38" y="43.4">OUND</tspan></text></g></g></svg>