<svg id="visual" viewBox="0 0 960 540" width="960" height="540" xmlns="http://www.w3.org/2000/svg" xmlns:xlink="http://www.w3.org/1999/xlink" version="1.1"><rect x="0" y="0" width="960" height="540" fill="#2c3639"></rect><path d="M0 297L120 297L120 263L240 263L240 277L360 277L360 197L480 197L480 275L600 275L600 224L720 224L720 211L840 211L840 264L960 264L960 250L960 541L960 541L840 541L840 541L720 541L720 541L600 541L600 541L480 541L480 541L360 541L360 541L240 541L240 541L120 541L120 541L0 541Z" fill="#344955"></path><path d="M0 361L120 361L120 361L240 361L240 313L360 313L360 324L480 324L480 294L600 294L600 371L720 371L720 303L840 303L840 376L960 376L960 297L960 541L960 541L840 541L840 541L720 541L720 541L600 541L600 541L480 541L480 541L360 541L360 541L240 541L240 541L120 541L120 541L0 541Z" fill="#2e8e63"></path><path d="M0 436L120 436L120 405L240 405L240 439L360 439L360 457L480 457L480 396L600 396L600 464L720 464L720 454L840 454L840 462L960 462L960 426L960 541L960 541L840 541L840 541L720 541L720 541L600 541L600 541L480 541L480 541L360 541L360 541L240 541L240 541L120 541L120 541L0 541Z" fill="#f9aa33"></path></svg>