<svg id="visual" viewBox="0 0 1920 1080" width="1920" height="1080" xmlns="http://www.w3.org/2000/svg" xmlns:xlink="http://www.w3.org/1999/xlink" version="1.1"><path d="M0 535L45.7 576.5C91.3 618 182.7 701 274.2 713.8C365.7 726.7 457.3 669.3 548.8 668.2C640.3 667 731.7 722 823 709.8C914.3 697.7 1005.7 618.3 1097 606C1188.3 593.7 1279.7 648.3 1371.2 679.8C1462.7 711.3 1554.3 719.7 1645.8 730.2C1737.3 740.7 1828.7 753.3 1874.3 759.7L1920 766L1920 1081L1874.3 1081C1828.7 1081 1737.3 1081 1645.8 1081C1554.3 1081 1462.7 1081 1371.2 1081C1279.7 1081 1188.3 1081 1097 1081C1005.7 1081 914.3 1081 823 1081C731.7 1081 640.3 1081 548.8 1081C457.3 1081 365.7 1081 274.2 1081C182.7 1081 91.3 1081 45.7 1081L0 1081Z" fill="#344955"></path><path d="M0 806L45.7 798.3C91.3 790.7 182.7 775.3 274.2 786.5C365.7 797.7 457.3 835.3 548.8 849.8C640.3 864.3 731.7 855.7 823 868.8C914.3 882 1005.7 917 1097 917.3C1188.3 917.7 1279.7 883.3 1371.2 878C1462.7 872.7 1554.3 896.3 1645.8 896C1737.3 895.7 1828.7 871.3 1874.3 859.2L1920 847L1920 1081L1874.3 1081C1828.7 1081 1737.3 1081 1645.8 1081C1554.3 1081 1462.7 1081 1371.2 1081C1279.7 1081 1188.3 1081 1097 1081C1005.7 1081 914.3 1081 823 1081C731.7 1081 640.3 1081 548.8 1081C457.3 1081 365.7 1081 274.2 1081C182.7 1081 91.3 1081 45.7 1081L0 1081Z" fill="#2c3639"></path></svg>