<svg xmlns="http://www.w3.org/2000/svg" version="1.1" xmlns:xlink="http://www.w3.org/1999/xlink" xmlns:svgjs="http://svgjs.com/svgjs" width="1000" height="1050" preserveAspectRatio="none" viewBox="0 0 1000 1050"><g mask="url(&quot;#SvgjsMask1068&quot;)" fill="none"><rect width="1000" height="1050" x="0" y="0" fill="rgba(52, 73, 85, 1)"></rect><path d="M0,495.369C91.885,490.149,125.281,365.02,204.726,318.56C289.673,268.882,428.922,303.828,475.633,217.214C521.502,132.161,425.545,36.372,408.175,-58.687C391.705,-148.822,430.375,-252.105,376.354,-326.113C321.748,-400.924,218.109,-414.061,129.382,-440.633C40.188,-467.345,-49.841,-498.721,-141.273,-481.133C-237.548,-462.613,-336.103,-420.318,-392.631,-340.216C-447.735,-262.132,-422.212,-157.255,-436.518,-62.762C-450.96,32.632,-522.535,132.769,-477.127,217.897C-431.396,303.631,-304.238,293.854,-220.241,342.702C-141.426,388.536,-91.026,500.54,0,495.369" fill="#223037"></path><path d="M1000 1484.45C1079.872 1478.781 1126.563 1394.38 1189.528 1344.912 1245.606 1300.854 1309.987 1268.937 1349.704 1209.705 1394.226 1143.308 1428.424 1068.319 1428.598 988.377 1428.786 901.796 1410.799 808.444 1350.714 746.105 1291.384 684.55 1199.364 665.5799999999999 1113.949 661.925 1039.611 658.744 978.4639999999999 714.221 905.171 727.0409999999999 818.302 742.236 718.908 693.3489999999999 646.5 743.69 572.835 794.905 528.422 894.004 536.5 983.359 544.404 1070.795 638.928 1119.501 687.107 1192.893 726.072 1252.248 740.408 1324.7 792.354 1373.104 851.001 1427.752 920.039 1490.126 1000 1484.45" fill="#466373"></path></g><defs><mask id="SvgjsMask1068"><rect width="1000" height="1050" fill="#ffffff"></rect></mask></defs></svg>