<?xml version="1.0" standalone="no"?><svg xmlns:xlink="http://www.w3.org/1999/xlink" xmlns="http://www.w3.org/2000/svg" viewBox="0 0 1440 144" preserveAspectRatio="xMaxYMax slice"><g transform="scale(1.3980582524271845)"><rect x="0" y="0" width="1030" height="103" fill="#ffffff"/><g transform="translate(48.07,13.73) scale(0.3435) rotate(0)"><path d="M13 0H20V7L7 20H0V13L13 0Z" fill="#fabe64"/></g><g transform="translate(82.4,13.73) scale(0.3435) rotate(0)"><path d="M13 0H20V7L7 20H0V13L13 0Z" fill="#cfd4d6"/></g><g transform="translate(116.73,13.73) scale(0.3435) rotate(0)"><path d="M13 0H20V7L7 20H0V13L13 0Z" fill="#f9ae3c"/></g><g transform="translate(185.4,13.73) scale(0.3435) rotate(0)"><path d="M13 0H20V7L7 20H0V13L13 0Z" fill="#fff8ef"/></g><g transform="translate(219.73,13.73) scale(0.3435) rotate(0)"><path d="M13 0H20V7L7 20H0V13L13 0Z" fill="#576872"/></g><g transform="translate(254.07,13.73) scale(0.3435) rotate(0)"><path d="M13 0H20V7L7 20H0V13L13 0Z" fill="#97a2a8"/></g><g transform="translate(322.73,13.73) scale(0.3435) rotate(0)"><path d="M13 0H20V7L7 20H0V13L13 0Z" fill="#ffffff"/></g><g transform="translate(391.4,13.73) scale(0.3435) rotate(0)"><path d="M13 0H20V7L7 20H0V13L13 0Z" fill="#fef3e1"/></g><g transform="translate(425.73,13.73) scale(0.3435) rotate(0)"><path d="M13 0H20V7L7 20H0V13L13 0Z" fill="#9da7ad"/></g><g transform="translate(494.4,13.73) scale(0.3435) rotate(0)"><path d="M13 0H20V7L7 20H0V13L13 0Z" fill="#fff8ef"/></g><g transform="translate(528.73,13.73) scale(0.3435) rotate(0)"><path d="M13 0H20V7L7 20H0V13L13 0Z" fill="#a1aab0"/></g><g transform="translate(563.07,13.73) scale(0.3435) rotate(0)"><path d="M13 0H20V7L7 20H0V13L13 0Z" fill="#fef0db"/></g><g transform="translate(597.4,13.73) scale(0.3435) rotate(0)"><path d="M13 0H20V7L7 20H0V13L13 0Z" fill="#fab144"/></g><g transform="translate(666.07,13.73) scale(0.3435) rotate(0)"><path d="M13 0H20V7L7 20H0V13L13 0Z" fill="#919ca3"/></g><g transform="translate(700.4,13.73) scale(0.3435) rotate(0)"><path d="M13 0H20V7L7 20H0V13L13 0Z" fill="#a2abb1"/></g><g transform="translate(769.07,13.73) scale(0.3435) rotate(0)"><path d="M13 0H20V7L7 20H0V13L13 0Z" fill="#ccd1d4"/></g><g transform="translate(803.4,13.73) scale(0.3435) rotate(0)"><path d="M13 0H20V7L7 20H0V13L13 0Z" fill="#fde8c9"/></g><g transform="translate(837.73,13.73) scale(0.3435) rotate(0)"><path d="M13 0H20V7L7 20H0V13L13 0Z" fill="#66767f"/></g><g transform="translate(975.07,13.73) scale(0.3435) rotate(0)"><path d="M13 0H20V7L7 20H0V13L13 0Z" fill="#fef6e9"/></g><g transform="translate(1009.4,13.73) scale(0.3435) rotate(0)"><path d="M13 0H20V7L7 20H0V13L13 0Z" fill="#feebcf"/></g><g transform="translate(13.73,48.07) scale(0.3435) rotate(0)"><path d="M13 0H20V7L7 20H0V13L13 0Z" fill="#adb6bb"/></g><g transform="translate(47.19,47.19) scale(0.43099999999999994) rotate(0)"><path d="M13 0H20V7L7 20H0V13L13 0Z" fill="#dbdfe1"/></g><g transform="translate(80.64,46.31) scale(0.519) rotate(0)"><path d="M13 0H20V7L7 20H0V13L13 0Z" fill="#99a3a9"/></g><g transform="translate(114.1,45.43) scale(0.607) rotate(0)"><path d="M13 0H20V7L7 20H0V13L13 0Z" fill="#9ca7ac"/></g><g transform="translate(214.46,42.79) scale(0.8705) rotate(0)"><path d="M13 0H20V7L7 20H0V13L13 0Z" fill="#fde5c1"/></g><g transform="translate(314.82,40.16) scale(1.1345) rotate(0)"><path d="M13 0H20V7L7 20H0V13L13 0Z" fill="#feefd9"/></g><g transform="translate(348.28,39.28) scale(1.2225) rotate(0)"><path d="M13 0H20V7L7 20H0V13L13 0Z" fill="#53656f"/></g><g transform="translate(381.73,38.4) scale(1.31) rotate(0)"><path d="M13 0H20V7L7 20H0V13L13 0Z" fill="#fddfb1"/></g><g transform="translate(415.19,37.52) scale(1.3980000000000001) rotate(0)"><path d="M13 0H20V7L7 20H0V13L13 0Z" fill="#52646e"/></g><g transform="translate(483.41,37.08) scale(1.442) rotate(0)"><path d="M13 0H20V7L7 20H0V13L13 0Z" fill="#bfc6ca"/></g><g transform="translate(552.08,37.08) scale(1.442) rotate(0)"><path d="M13 0H20V7L7 20H0V13L13 0Z" fill="#bec4c8"/></g><g transform="translate(586.41,37.08) scale(1.442) rotate(0)"><path d="M13 0H20V7L7 20H0V13L13 0Z" fill="#fffdfb"/></g><g transform="translate(621.19,37.52) scale(1.3980000000000001) rotate(0)"><path d="M13 0H20V7L7 20H0V13L13 0Z" fill="#8c989f"/></g><g transform="translate(726.82,40.16) scale(1.1345) rotate(0)"><path d="M13 0H20V7L7 20H0V13L13 0Z" fill="#7e8c93"/></g><g transform="translate(867.67,43.67) scale(0.783) rotate(0)"><path d="M13 0H20V7L7 20H0V13L13 0Z" fill="#feecd2"/></g><g transform="translate(938.1,45.43) scale(0.607) rotate(0)"><path d="M13 0H20V7L7 20H0V13L13 0Z" fill="#fcd190"/></g><g transform="translate(973.31,46.31) scale(0.519) rotate(0)"><path d="M13 0H20V7L7 20H0V13L13 0Z" fill="#fffcf7"/></g><g transform="translate(1008.52,47.19) scale(0.43099999999999994) rotate(0)"><path d="M13 0H20V7L7 20H0V13L13 0Z" fill="#fabf65"/></g><g transform="translate(181.01,78.01) scale(0.783) rotate(0)"><path d="M13 0H20V7L7 20H0V13L13 0Z" fill="#677780"/></g><g transform="translate(281.37,75.37) scale(1.0465) rotate(0)"><path d="M13 0H20V7L7 20H0V13L13 0Z" fill="#b1b9be"/></g><g transform="translate(314.82,74.49) scale(1.1345) rotate(0)"><path d="M13 0H20V7L7 20H0V13L13 0Z" fill="#fddeaf"/></g><g transform="translate(348.28,73.61) scale(1.2225) rotate(0)"><path d="M13 0H20V7L7 20H0V13L13 0Z" fill="#677780"/></g><g transform="translate(415.19,71.85) scale(1.3980000000000001) rotate(0)"><path d="M13 0H20V7L7 20H0V13L13 0Z" fill="#fffbf6"/></g><g transform="translate(449.08,71.41) scale(1.442) rotate(0)"><path d="M13 0H20V7L7 20H0V13L13 0Z" fill="#fef1df"/></g><g transform="translate(552.08,71.41) scale(1.442) rotate(0)"><path d="M13 0H20V7L7 20H0V13L13 0Z" fill="#51636d"/></g><g transform="translate(586.41,71.41) scale(1.442) rotate(0)"><path d="M13 0H20V7L7 20H0V13L13 0Z" fill="#9aa5ab"/></g><g transform="translate(621.19,71.85) scale(1.3980000000000001) rotate(0)"><path d="M13 0H20V7L7 20H0V13L13 0Z" fill="#f8f9f9"/></g><g transform="translate(691.61,73.61) scale(1.2225) rotate(0)"><path d="M13 0H20V7L7 20H0V13L13 0Z" fill="#f9ac38"/></g><g transform="translate(726.82,74.49) scale(1.1345) rotate(0)"><path d="M13 0H20V7L7 20H0V13L13 0Z" fill="#f3f4f5"/></g><g transform="translate(762.04,75.37) scale(1.0465) rotate(0)"><path d="M13 0H20V7L7 20H0V13L13 0Z" fill="#384c58"/></g><g transform="translate(797.25,76.25) scale(0.9585000000000001) rotate(0)"><path d="M13 0H20V7L7 20H0V13L13 0Z" fill="#f9ab36"/></g><g transform="translate(832.46,77.13) scale(0.8705) rotate(0)"><path d="M13 0H20V7L7 20H0V13L13 0Z" fill="#687880"/></g><g transform="translate(867.67,78.01) scale(0.783) rotate(0)"><path d="M13 0H20V7L7 20H0V13L13 0Z" fill="#fffaf4"/></g><g transform="translate(938.1,79.76) scale(0.607) rotate(0)"><path d="M13 0H20V7L7 20H0V13L13 0Z" fill="#a9b2b7"/></g><g transform="translate(973.31,80.64) scale(0.519) rotate(0)"><path d="M13 0H20V7L7 20H0V13L13 0Z" fill="#dbdfe1"/></g></g></svg>