<svg xmlns="http://www.w3.org/2000/svg" viewBox="0 0 181.69 171.7"><defs><style>.cls-1{fill:#faaa30;}.cls-2{fill:#344955;}</style></defs><g id="Layer_2" data-name="Layer 2"><g id="Layer_1-2" data-name="Layer 1"><polygon class="cls-1" points="39.7 0 0 0 74.75 129.15 92.36 93.78 39.7 0"/><path class="cls-2" d="M141.07,0,76.45,133.52,95.09,171.7l31-61.38-25.5-13.24.91-1.76,25.48,13.22.54-1.06L101.72,94.12l1.58-3L129,104.43l1.79-3.53L105,87.49l1.09-2.1,25.8,13.4,1.58-3.12L107.67,82.29l1.09-2.09L134.5,93.56l1.75-3.47L110.18,76.55l1.74-3.35,26,13.52.52-1-26-13.5,1-2,26,13.49.32-.65L113.49,69.34l1.69-3.25,26.29,13.64.53-1L115.72,65.05l2-3.8,26.24,13.62,2.19-4.35L119.94,56.93l.66-1.29,26.17,13.59.62-1.23L121,54.28l1.54-3L148.9,65l1.77-3.53L124.33,47.82l1-2,26.32,13.66,4.51-8.93-1.35,2.6L128.17,39.36l2-3.89,26.64,13.82.95-1.88L131.16,33.6l.7-1.34,26.59,13.81,12.63-25L144.77,7.38l1.31-2.52L172.36,18.5l.42-.83L146.37,4l.9-1.73,26.39,13.7,1.65-3.27L150.93,0Zm13.34,54-.7,1.36L127.06,41.51l.7-1.37Zm5.83-12.07L133.6,28.08l1.51-2.91L161.76,39Zm3.43-6.6L137,21.47l1.51-2.91L165.18,32.4Zm3.1-6.7L140.12,14.78l1-1.87,26.65,13.83Zm2.4-4.62-.74,1.43L141.78,11.59l.74-1.43ZM179.83,3.68l-.72,1.43L169.27,0h3.47Zm.32-.63-5.88-3h7.42Zm-14-3,12.29,6.38-1.9,3.74L157.08,0Z"/></g></g></svg>