<svg id="visual" viewBox="0 0 3840 2160" width="3840" height="2160" xmlns="http://www.w3.org/2000/svg" xmlns:xlink="http://www.w3.org/1999/xlink" version="1.1"><rect x="0" y="0" width="3840" height="2160" fill="#f9aa33"></rect><defs><linearGradient id="grad1_0" x1="43.8%" y1="0%" x2="100%" y2="100%"><stop offset="14.444444444444446%" stop-color="#f9aa33" stop-opacity="1"></stop><stop offset="85.55555555555554%" stop-color="#f9aa33" stop-opacity="1"></stop></linearGradient></defs><defs><linearGradient id="grad2_0" x1="0%" y1="0%" x2="56.3%" y2="100%"><stop offset="14.444444444444446%" stop-color="#f9aa33" stop-opacity="1"></stop><stop offset="85.55555555555554%" stop-color="#f9aa33" stop-opacity="1"></stop></linearGradient></defs><g transform="translate(3840, 0)"><path d="M0 1404C-117 1180.8 -234.1 957.7 -359 866.6C-483.9 775.5 -616.6 816.5 -792.7 792.7C-968.7 768.8 -1188 680.2 -1297.1 537.3C-1406.2 394.4 -1405.1 197.2 -1404 0L0 0Z" fill="#344955"></path></g><g transform="translate(0, 2160)"><path d="M0 -1404C222.1 -1427 444.2 -1450.1 537.3 -1297.1C630.4 -1144.2 594.4 -815.3 654.1 -654.1C713.7 -492.9 868.9 -499.3 1009.8 -418.3C1150.7 -337.2 1277.4 -168.6 1404 0L0 0Z" fill="#344955"></path></g></svg>