<svg xmlns="http://www.w3.org/2000/svg" viewBox="0 0 384 371.84"><defs><style>.cls-1{fill:#fefefe;}.cls-2{fill:#e2dfe1;}.cls-3{fill:#f4971c;}.cls-4{fill:#f9aa33;}.cls-5{fill:#665e66;}.cls-6{fill:#555058;}.cls-7{fill:#dd6671;}.cls-8{fill:#dd6670;}.cls-9{fill:#dd6570;}.cls-10{fill:#f7f4f7;}.cls-11{fill:#696169;}.cls-12{fill:#686068;}.cls-13{fill:#675f67;}</style></defs><g id="Layer_2" data-name="Layer 2"><g id="Layer_1-2" data-name="Layer 1"><path class="cls-1" d="M384,318.58v53.26H0v-105a7.1,7.1,0,0,1,.72,1.93c.32,6.84.47,13.69.87,20.53,1,16.94,8.76,29.48,24.27,36.94,7.3,3.5,15.1,3.77,23,3.74l44.94,1.54c.31,1.07.58,2.16.94,3.22,4.2,12.21,12.48,20.08,25.3,22.1,7.44,1.18,15.1,1.14,22.66,1.46,8.59.37,17.18.6,25.77.76,15.71.3,31.43.74,47.14.71,23.08,0,46.16-.39,69.24-.69,9.09-.12,18.18-.49,27.27-.7,12-.28,23.92-.66,35.89-.75,18.7-.14,32-12.35,33.85-31C382.09,323.91,383.25,321.27,384,318.58Z"/><path class="cls-2" d="M384,318.58c-.75,2.69-1.91,5.33-2.17,8.06-1.8,18.63-15.15,30.84-33.85,31-12,.09-23.93.47-35.89.75-9.09.21-18.18.58-27.27.7-23.08.3-46.16.66-69.24.69-15.71,0-31.43-.41-47.14-.71-8.59-.16-17.18-.39-25.77-.76-7.56-.32-15.22-.28-22.66-1.46-12.82-2-21.1-9.89-25.3-22.1-.36-1.06-.63-2.15-.94-3.22-1-9.42-2.67-18.83-2.69-28.25,0-11.94,1-23.9,2.1-35.81.94-10.49,5.89-18.86,14.71-24.93,7.23-5,15.49-5.25,23.69-5.51,20.46-.67,40.93-1.23,61.4-1.52,19.36-.28,38.73-.17,58.09-.23l4.87.06c21.22.26,42.44.4,63.65.82,11.32.23,22.64.77,33.94,1.49C366.34,238.44,378.67,250,381,263c.67,3.79,1,7.63,1.62,11.42.12.78.93,1.44,1.43,2.16Zm-146.4-72v.72c-16.09,0-32.18-.19-48.26.05-21.43.31-42.86,1-64.29,1.44A20.28,20.28,0,0,0,105,266c-.87,5.25-1.7,10.53-2.16,15.83a135.12,135.12,0,0,0-.73,17.52c.37,8.55,1.45,17.06,2.13,25.59,1.08,13.49,10.74,20.79,20.51,21.38,6.83.42,13.68.57,20.52.78,9.34.28,18.68.6,28,.73,22,.31,43.92.61,65.88.73,7.84,0,15.68-.51,23.52-.67,14.84-.3,29.68-.5,44.51-.76,13.47-.24,26.93-.59,40.39-.74,12.33-.14,20.91-6.85,22.69-18.89a180.86,180.86,0,0,0,2.28-27.06c-.05-11-1.06-22.09-2.21-33.08-1-9.86-9.72-18.08-18.71-18.49-11.56-.54-23.12-1.14-34.68-1.46-14-.4-27.93-.63-41.89-.77C262.59,246.49,250.09,246.59,237.6,246.59Z"/><path class="cls-3" d="M48.83,330c-7.87,0-15.67-.24-23-3.74-15.51-7.46-23.27-20-24.27-36.94-.4-6.84-.55-13.69-.87-20.53A7.1,7.1,0,0,0,0,266.83v-72A31.62,31.62,0,0,0,.74,191c.61-8.58.41-17.3,1.91-25.72C5,151.93,13.07,142.35,25.27,136.34c1.12-.55,2.25-1.07,3.37-1.61l20.12-2.53a12.13,12.13,0,0,1-1.51,1.53,49.5,49.5,0,0,0-14.4,16.9c-4.56,8.26-4.39,17.3-5,26.14-1,14.77-1.31,29.6-1.56,44.41-.14,8.46.44,16.93.65,25.4.28,11.09.47,22.18.79,33.27.16,5.59.06,11.25.88,16.75a68.48,68.48,0,0,0,4,14.28C35.75,319.06,42,324.79,48.83,330Z"/><path class="cls-4" d="M48.83,330C42,324.79,35.75,319.06,32.6,310.88a68.48,68.48,0,0,1-4-14.28c-.82-5.5-.72-11.16-.88-16.75-.32-11.09-.51-22.18-.79-33.27-.21-8.47-.79-16.94-.65-25.4.25-14.81.6-29.64,1.56-44.41.57-8.84.4-17.88,5-26.14a49.5,49.5,0,0,1,14.4-16.9,12.13,12.13,0,0,0,1.51-1.53l1.52-.26L71.7,131c22.21-.23,44.44-.86,66.65-.59,24.07.29,48.15,1.19,72.21,2.25,21.28.94,37.64,17.61,38.51,39,.86,21.19,1.35,42.4,2,63.6-19.36.06-38.73,0-58.09.23-20.47.29-40.94.85-61.4,1.52-8.2.26-16.46.53-23.69,5.51-8.82,6.07-13.77,14.44-14.71,24.93-1.07,11.91-2.14,23.87-2.1,35.81,0,9.42,1.73,18.83,2.69,28.25Z"/><path class="cls-5" d="M71.7,131l-21.42.91c.24-13,.37-25.9.75-38.85.35-11.92.36-23.9,1.59-35.74C54.54,38.76,64,24.17,79,13.25A63.64,63.64,0,0,1,106.72,2c.75-.12,1.37-1,2-1.56l1.36-.08c3.34,1.31,6.65,2,9.85-.35,17,1,34.4.21,51,3.32C200,8.74,219.9,34.62,221,65c.27,7.34,0,14.71,0,22.45H200.24C200,80,199.71,72.5,199.51,65,199.27,56,193.78,47.85,185,45.55c-6-1.57-12.48-1.7-18.77-2.18-2.37-.18-4.81.48-7.21.75l-2.23-.18c-1.5-2.44-3.1-1.78-4.73-.16-15.61-.15-31.21-.36-46.81-.41-4.12,0-8.24.36-12.35.75-11.33,1.07-19.77,10.45-20,22.43C72.38,88,72.07,109.54,71.7,131Z"/><path class="cls-6" d="M108.77.43c-.68.54-1.3,1.44-2,1.56A63.64,63.64,0,0,0,79,13.25C64,24.17,54.54,38.76,52.62,57.35,51.39,69.19,51.38,81.17,51,93.09c-.38,13-.51,25.9-.75,38.85l-1.52.26-20.12,2.53c.47-24.44.61-48.9,1.51-73.33C31.21,32.54,55.52,6.05,84.2,2.13,92.32,1,100.58,1,108.77.43Z"/><path class="cls-6" d="M159,44.12c2.4-.27,4.84-.93,7.21-.75,6.29.48,12.73.61,18.77,2.18C193.78,47.85,199.27,56,199.51,65c.2,7.47.48,14.93.73,22.4H178.08c0-6.45.3-12.77-.06-19.05C177.21,53.85,172.71,48.31,159,44.12Z"/><path class="cls-7" d="M259.22,69.28c-.77,2.19-1.08,3.4-1.6,4.5C254.29,80.87,251,88,247.54,95c-1.9,3.94-4.88,5.28-8,3.78s-4.11-4.74-2.31-8.6q5.12-11,10.37-21.92c1.33-2.76,3.69-4.49,6.63-3.29C256.2,65.8,257.68,67.9,259.22,69.28Z"/><path class="cls-8" d="M282,134.38c.11,5.09-3.76,8.23-7.36,6.65-8.22-3.6-16.33-7.46-24.35-11.47a5.38,5.38,0,0,1-2.29-7.43,5.47,5.47,0,0,1,7.34-2.62c7.94,3.61,15.85,7.32,23.62,11.28C280.46,131.58,281.36,133.64,282,134.38Z"/><path class="cls-9" d="M253.83,112.42c-2.85,0-4.79-1.45-5.44-4.2s.23-5.29,2.84-6.28q12.91-4.92,26-9.25c2.66-.87,5,.66,6,3.24s.63,5.76-2.06,6.83c-8.78,3.49-17.76,6.48-26.67,9.65A2.68,2.68,0,0,1,253.83,112.42Z"/><path class="cls-6" d="M120,0c-3.2,2.32-6.51,1.66-9.85.35Z"/><path class="cls-6" d="M152,43.78c1.63-1.62,3.23-2.28,4.73.16Z"/><path class="cls-10" d="M237.6,246.59c12.49,0,25-.1,37.48,0,14,.14,27.93.37,41.89.77,11.56.32,23.12.92,34.68,1.46,9,.41,17.67,8.63,18.71,18.49,1.15,11,2.16,22.05,2.21,33.08a180.86,180.86,0,0,1-2.28,27.06c-1.78,12-10.36,18.75-22.69,18.89-13.46.15-26.92.5-40.39.74-14.83.26-29.67.46-44.51.76-7.84.16-15.68.71-23.52.67-22-.12-43.92-.42-65.88-.73-9.34-.13-18.68-.45-28-.73-6.84-.21-13.69-.36-20.52-.78-9.77-.59-19.43-7.89-20.51-21.38-.68-8.53-1.76-17-2.13-25.59a135.12,135.12,0,0,1,.73-17.52c.46-5.3,1.29-10.58,2.16-15.83a20.28,20.28,0,0,1,20-17.17c21.43-.41,42.86-1.13,64.29-1.44,16.08-.24,32.17-.05,48.26-.05ZM135.94,287.41c-4.72-2.71-8.7-5-12.71-7.27s-7-1.68-8.85,1.3-.77,6.27,3.18,8.61,8.11,4.71,12.57,7.29c-1.45.91-2.46,1.59-3.51,2.21-3.44,2-7.17,3.68-10.24,6.15-1.51,1.23-2.82,4.17-2.41,5.91s2.86,3.55,4.81,4.31c1.23.49,3.29-.66,4.79-1.45,4-2.13,7.89-4.45,12.38-7,0,5.6-.09,10.34,0,15.07.11,4.34,2.78,7,6.43,6.53,3.16-.36,5-2.72,5.12-6.72.09-4.7,0-9.4,0-14.94,4.63,2.66,8.5,5.08,12.56,7.14,1.66.84,4,1.72,5.51,1.13,1.77-.71,3.94-2.9,4-4.57a7.76,7.76,0,0,0-3-5.74c-4.07-2.93-8.62-5.2-13.37-8,4.59-2.65,8.6-4.93,12.56-7.28s5.15-5.49,3.33-8.6-5-3.55-9.15-1.24-7.94,4.53-12.47,7.12c0-5.24,0-9.82,0-14.39s-2.19-7.26-5.75-7.28-5.78,2.66-5.83,7.2S135.94,282.12,135.94,287.41Zm80.16,10c4.93-2.87,9.29-5.29,13.53-7.91,3.13-1.94,3.94-5.25,2.26-8.05s-4.65-3.45-7.85-1.82c-1.67.84-3.24,1.88-4.87,2.8-2.84,1.59-5.7,3.15-9,5,0-5.8.09-10.8,0-15.79-.11-3.87-2.76-6.21-6.24-5.79-3.08.37-5,2.67-5.08,6.35-.08,4.9,0,9.81,0,14.71-.68,0-.82.05-.91,0q-5.37-3-10.73-6.11c-4.92-2.82-8.15-2.54-10.09.89s-.48,6.22,4.49,9.09l11.54,6.67c-4.43,2.58-8.51,4.91-12.57,7.3s-5.25,5.46-3.4,8.54,5.14,3.59,9.14,1.33,7.91-4.55,12.53-7.22c0,5.37,0,9.94,0,14.51s2.09,7.21,5.76,7.21,5.59-2.53,5.62-7.27c0-4.55,0-9.11,0-14.48,4.8,2.75,8.86,5.11,13,7.41,3.71,2.09,7.08,1.51,8.81-1.45s.6-6.23-3.05-8.4C224.86,302.47,220.77,300.13,216.1,297.41Zm108.48,9.88c0,5.61-.13,10.32.06,15,.07,1.64.4,3.94,1.48,4.72a8.78,8.78,0,0,0,6,1.56c2.71-.46,3.82-3,3.83-5.73,0-4.92,0-9.84,0-15.31,1.73.9,2.83,1.43,3.88,2,3.36,1.91,6.65,4,10.08,5.75a5.65,5.65,0,0,0,7.77-2.18c1.5-2.63.79-5.52-2-7.52-1.41-1-3-1.82-4.48-2.71-3-1.8-6.09-3.58-9.46-5.57,4.65-2.67,8.79-5,12.87-7.41,3.7-2.2,4.78-5.39,3-8.42s-5-3.57-8.83-1.41c-4.1,2.31-8.16,4.67-12.81,7.33,0-5.31.21-10-.1-14.69-.13-1.94-.86-4.45-2.23-5.55a6.54,6.54,0,0,0-5.76-.72,6.85,6.85,0,0,0-3.13,4.91c-.41,5.14-.14,10.32-.14,16.12-4.82-2.75-8.9-5.12-13-7.41-3.88-2.16-7-1.59-8.79,1.48s-.63,6.18,3.12,8.39c4.06,2.4,8.17,4.73,12.83,7.42l-12.66,7.38c-3.78,2.22-5,5.25-3.41,8.3s5.15,3.8,9.06,1.61S319.71,310.1,324.58,307.29ZM256,297.39c-4.87,2.83-9.33,5.28-13.65,8-4,2.48-4.3,7.93-.37,9.71a8.87,8.87,0,0,0,6.57-.31c4.43-2,8.55-4.74,13.21-7.4,0,5.51,0,10.26,0,15,0,4.27,2.27,6.83,5.8,6.74,3.37-.08,5.48-2.56,5.52-6.64,0-4.83,0-9.65,0-14.95,1.41.73,2.39,1.19,3.33,1.73,3.58,2,7.11,4.17,10.73,6.13,2.46,1.33,5.28,1.23,6.72-1.11a9.52,9.52,0,0,0,.86-6.45c-.29-1.33-2.3-2.47-3.74-3.36-3.85-2.38-7.82-4.58-12.05-7,5-2.89,9.47-5.35,13.8-8.07,3-1.89,3.71-5.08,2.08-7.79s-4.66-3.55-7.83-2c-1.34.66-2.61,1.48-3.91,2.22l-10,5.72c0-5.4,0-10,0-14.63s-2.06-7.13-5.82-7.05c-3.58.08-5.49,2.46-5.52,7,0,4.69,0,9.37,0,14.7-4.78-2.74-8.95-5.18-13.16-7.53-3.73-2.08-7-1.35-8.7,1.85-1.61,3-.54,5.93,3.09,8.08C247,292.3,251.15,294.63,256,297.39Z"/><path class="cls-11" d="M135.94,287.41c0-5.29,0-9.89,0-14.48s2.26-7.22,5.83-7.2,5.71,2.69,5.75,7.28,0,9.15,0,14.39c4.53-2.59,8.49-4.88,12.47-7.12s7.33-1.86,9.15,1.24.64,6.25-3.33,8.6-8,4.63-12.56,7.28c4.75,2.76,9.3,5,13.37,8a7.76,7.76,0,0,1,3,5.74c-.11,1.67-2.28,3.86-4,4.57-1.47.59-3.85-.29-5.51-1.13-4.06-2.06-7.93-4.48-12.56-7.14,0,5.54.07,10.24,0,14.94-.08,4-2,6.36-5.12,6.72-3.65.42-6.32-2.19-6.43-6.53-.11-4.73,0-9.47,0-15.07-4.49,2.56-8.38,4.88-12.38,7-1.5.79-3.56,1.94-4.79,1.45-2-.76-4.39-2.53-4.81-4.31s.9-4.68,2.41-5.91c3.07-2.47,6.8-4.14,10.24-6.15,1-.62,2.06-1.3,3.51-2.21-4.46-2.58-8.53-4.9-12.57-7.29s-5.09-5.52-3.18-8.61,5-3.47,8.85-1.3S131.22,284.7,135.94,287.41Z"/><path class="cls-12" d="M216.1,297.41c4.67,2.72,8.76,5.06,12.81,7.48,3.65,2.17,4.8,5.43,3.05,8.4s-5.1,3.54-8.81,1.45c-4.09-2.3-8.15-4.66-13-7.41,0,5.37,0,9.93,0,14.48,0,4.74-2,7.28-5.62,7.27s-5.73-2.55-5.76-7.21,0-9.14,0-14.51c-4.62,2.67-8.56,5-12.53,7.22s-7.29,1.75-9.14-1.33-.65-6.15,3.4-8.54,8.14-4.72,12.57-7.3l-11.54-6.67c-5-2.87-6.38-5.73-4.49-9.09s5.17-3.71,10.09-.89q5.36,3.08,10.73,6.11c.09.05.23,0,.91,0,0-4.9-.06-9.81,0-14.71.06-3.68,2-6,5.08-6.35,3.48-.42,6.13,1.92,6.24,5.79.12,5,0,10,0,15.79,3.29-1.81,6.15-3.37,9-5,1.63-.92,3.2-2,4.87-2.8,3.2-1.63,6.21-.88,7.85,1.82s.87,6.11-2.26,8.05C225.39,292.12,221,294.54,216.1,297.41Z"/><path class="cls-12" d="M324.58,307.29c-4.87,2.81-8.84,5.13-12.85,7.39s-7.4,1.54-9.06-1.61-.37-6.08,3.41-8.3l12.66-7.38c-4.66-2.69-8.77-5-12.83-7.42-3.75-2.21-4.86-5.32-3.12-8.39s4.91-3.64,8.79-1.48c4.12,2.29,8.2,4.66,13,7.41,0-5.8-.27-11,.14-16.12a6.85,6.85,0,0,1,3.13-4.91,6.54,6.54,0,0,1,5.76.72c1.37,1.1,2.1,3.61,2.23,5.55.31,4.67.1,9.38.1,14.69,4.65-2.66,8.71-5,12.81-7.33,3.82-2.16,7-1.63,8.83,1.41s.73,6.22-3,8.42c-4.08,2.42-8.22,4.74-12.87,7.41,3.37,2,6.42,3.77,9.46,5.57,1.5.89,3.07,1.69,4.48,2.71,2.77,2,3.48,4.89,2,7.52a5.65,5.65,0,0,1-7.77,2.18c-3.43-1.78-6.72-3.84-10.08-5.75-1.05-.6-2.15-1.13-3.88-2,0,5.47,0,10.39,0,15.31,0,2.77-1.12,5.27-3.83,5.73a8.78,8.78,0,0,1-6-1.56c-1.08-.78-1.41-3.08-1.48-4.72C324.45,317.61,324.58,312.9,324.58,307.29Z"/><path class="cls-13" d="M256,297.39c-4.8-2.76-8.93-5.09-13-7.51-3.63-2.15-4.7-5.07-3.09-8.08,1.71-3.2,5-3.93,8.7-1.85,4.21,2.35,8.38,4.79,13.16,7.53,0-5.33,0-10,0-14.7,0-4.5,1.94-6.88,5.52-7,3.76-.08,5.79,2.35,5.82,7.05s0,9.23,0,14.63l10-5.72c1.3-.74,2.57-1.56,3.91-2.22,3.17-1.56,6.17-.76,7.83,2s.93,5.9-2.08,7.79c-4.33,2.72-8.82,5.18-13.8,8.07,4.23,2.45,8.2,4.65,12.05,7,1.44.89,3.45,2,3.74,3.36a9.52,9.52,0,0,1-.86,6.45c-1.44,2.34-4.26,2.44-6.72,1.11-3.62-2-7.15-4.09-10.73-6.13-.94-.54-1.92-1-3.33-1.73,0,5.3,0,10.12,0,14.95,0,4.08-2.15,6.56-5.52,6.64-3.53.09-5.76-2.47-5.8-6.74,0-4.74,0-9.49,0-15-4.66,2.66-8.78,5.36-13.21,7.4a8.87,8.87,0,0,1-6.57.31c-3.93-1.78-3.62-7.23.37-9.71C246.62,302.67,251.08,300.22,256,297.39Z"/></g></g></svg>