<svg xmlns="http://www.w3.org/2000/svg" viewBox="0 0 359.4 359.43"><defs><style>.cls-1{fill:#f0af42;}.cls-2{fill:#d5883c;}.cls-3{fill:#f3f3f3;}.cls-4{fill:#e2e7f5;}.cls-5{fill:#cbcde8;}.cls-6{fill:#6fbe45;}.cls-7{fill:#579d45;}.cls-8{fill:#cacde8;}.cls-9{fill:#f2f3f2;}</style></defs><g id="Layer_2" data-name="Layer 2"><g id="Layer_1-2" data-name="Layer 1"><path class="cls-1" d="M323.49,173.84c7.61,0,15.22-.08,22.83-.07,8.17,0,13.06,4.88,13.07,13q0,47.34,0,94.68,0,26.2,0,52.4c0,15.45-10.09,25.54-25.52,25.54H25.45C10.08,359.42,0,349.27,0,333.81Q0,227.7,0,121.6q0-13.72,13.87-13.71c15.1,0,30.2.08,45.29-.06a15.33,15.33,0,0,1,11.65,4.87c12.24,12.28,24.58,24.46,36.88,36.67,0,1.62.12,3.23.12,4.85q0,57.33,0,114.67c0,7.22.07,14.44.11,21.66v20.72H323.49ZM18.18,341.46H93.9c8,0,7.85,0,8-8.11.06-3.17-1-4-4-3.93-25.31.11-50.61.06-75.92.07-1.2,0-2.41.13-3.79.21Zm101.44,0c6.66-.09,6.19.87,6.15-5,0-7.69,1-7-4.86-7-7.92,0-7.09-1-7.08,5.14C113.85,342.4,112.8,341.35,119.62,341.46Z"/><path class="cls-2" d="M18.18,341.46V329.7c1.38-.08,2.59-.21,3.79-.21,25.31,0,50.61,0,75.92-.07,3,0,4.08.76,4,3.93-.16,8.11,0,8.11-8,8.11H18.18Z"/><path class="cls-2" d="M119.62,341.46c-6.82-.11-5.77.94-5.79-6.82,0-6.15-.84-5.11,7.08-5.14,5.84,0,4.82-.71,4.86,7C125.81,342.33,126.28,341.37,119.62,341.46Z"/><path class="cls-3" d="M107.94,290.55c0-7.22-.11-14.44-.11-21.66q0-57.33,0-114.67c0-1.62-.08-3.23-.12-4.85,0-9.22.12-18.44.12-27.66q0-58.71,0-117.41c0-2.67.07-4.31,3.64-4.3q76.09.2,152.2.12V60h35.86q0,53.73,0,107.46c0,1.24-.13,2.48-.19,3.72a9.23,9.23,0,0,1-.45-1.41C295,141.55,280.61,120.48,256,106.29a21.34,21.34,0,0,0-4.43-1.37,17.4,17.4,0,0,0-3.1-2.32,80.9,80.9,0,0,0-50.7-5c-51.2,10.93-80,66.17-59.72,114.42,7.79,18.5,20.46,32.79,38.68,41.79A22.93,22.93,0,0,0,179,255.2c38.79,19.11,86.65,4.74,108.75-32.52,6.32-10.65,9.8-22.19,11.59-34.33.07,1.74.2,3.48.2,5.22q0,41.16,0,82.33c0,10-4.6,14.65-14.53,14.65ZM126.11,66H238c7.59,0,7.39,0,7.64-7.74.12-3.53-1-4.32-4.41-4.31C206.1,54,170.94,54,135.78,54,124.85,54,124.85,54,126.11,66ZM209.42,30H157.74c-8.05,0-7.91,0-8.06,8.05-.06,3.08.8,4,3.95,4C171.07,41.93,188.52,42,206,42c1.09,0,2.17-.15,3.46-.25Zm24.13,12h3.36c9.16,0,9.1,0,8.72-9.2-.08-2.08-.72-2.86-2.82-2.81-4.1.11-8.21,0-12.32,0-9.5,0-9.44,0-8.9,9.39.11,1.91.69,2.68,2.63,2.62C227.33,41.93,230.44,42,233.55,42Z"/><path class="cls-4" d="M299.3,171.17c.06-1.24.19-2.48.19-3.72q0-53.73,0-107.46c6.34,0,12.68,0,19-.05a27.14,27.14,0,0,0,4.23-.73,27.34,27.34,0,0,1,.7,4.27q.07,55.17.06,110.36V311.27H107.94V290.55H285c9.93,0,14.53-4.63,14.53-14.65q0-41.16,0-82.33c0-1.74-.13-3.48-.2-5.22Q299.29,179.76,299.3,171.17Z"/><path class="cls-5" d="M322.73,59.21a27.14,27.14,0,0,1-4.23.73c-6.34.08-12.68.05-19,.05H263.62V.12c1.72,1.61,3.48,3.18,5.15,4.84Q294.39,30.55,320,56.18C321,57.14,321.82,58.2,322.73,59.21Z"/><path class="cls-6" d="M176.76,253.82c-18.22-9-30.89-23.29-38.68-41.79-20.31-48.25,8.52-103.49,59.72-114.42a80.9,80.9,0,0,1,50.7,5,17,17,0,0,1,3.09,2.32,81.56,81.56,0,0,1,22.73,23.79c10.56,17,15,35.45,12.49,55.49A83.48,83.48,0,0,1,265,231a83.83,83.83,0,0,1-75.1,25.4C185.53,255.61,181.15,254.68,176.76,253.82Zm79.75-92-40.58-40.52-40.61,40.58h22.42v77.54h36v-77.6Z"/><path class="cls-7" d="M176.76,253.82c4.39.86,8.77,1.79,13.18,2.57A83.83,83.83,0,0,0,265,231a83.48,83.48,0,0,0,21.77-46.79c2.52-20-1.93-38.45-12.49-55.49a81.56,81.56,0,0,0-22.73-23.79,21.24,21.24,0,0,1,4.44,1.37c24.58,14.19,39,35.26,42.82,63.47a9.23,9.23,0,0,0,.45,1.41q0,8.58,0,17.18C297.5,200.49,294,212,287.7,222.68c-22.1,37.26-70,51.63-108.75,32.52A22.93,22.93,0,0,1,176.76,253.82Z"/><path class="cls-8" d="M126.11,66c-1.26-12-1.26-12,9.67-12,35.16,0,70.32.05,105.48-.07,3.36,0,4.53.78,4.41,4.31C245.42,66,245.62,66,238,66H126.11Z"/><path class="cls-8" d="M209.42,30V41.74c-1.29.1-2.37.25-3.46.25-17.44,0-34.89-.06-52.33.08-3.15,0-4-.92-3.95-4,.15-8,0-8,8.06-8h51.68Z"/><path class="cls-8" d="M233.55,42c-3.11,0-6.22-.07-9.33,0-1.94.06-2.52-.71-2.63-2.62C221.05,30,221,30,230.49,30c4.11,0,8.22.08,12.32,0,2.1,0,2.74.73,2.82,2.81.38,9.21.44,9.2-8.72,9.2Z"/><path class="cls-9" d="M256.51,161.81H233.75v77.6h-36V161.87H175.32l40.61-40.58Z"/></g></g></svg>