<?xml version="1.0" encoding="UTF-8"?>
<svg id="Layer_2" data-name="Layer 2" xmlns="http://www.w3.org/2000/svg" viewBox="0 0 514.23 514.23">
  <defs>
    <style>
      .cls-1 {
        fill: #e6e6e6;
      }

      .cls-1, .cls-2, .cls-3, .cls-4, .cls-5, .cls-6, .cls-7 {
        stroke-width: 0px;
      }

      .cls-2, .cls-8 {
        fill: #d2d1d1;
      }

      .cls-8 {
        stroke: #d2d1d1;
        stroke-miterlimit: 10;
      }

      .cls-3 {
        fill: #bfbfbf;
      }

      .cls-4 {
        fill: #f7f7f8;
      }

      .cls-5 {
        fill: #fff;
      }

      .cls-6 {
        fill: #f9f9fa;
      }

      .cls-7 {
        fill: #eaeaea;
      }
    </style>
  </defs>
  <g id="Layer_1-2" data-name="Layer 1">
    <circle class="cls-6" cx="257.12" cy="257.12" r="257.12"/>
    <circle class="cls-4" cx="257.12" cy="257.12" r="235"/>
    <g>
      <path class="cls-7" d="M295.74,134.63h-77.18c-3.66,0-6.63,2.97-6.63,6.63v171.54l-.88.27-18.93,5.8c-1.87.57-3.85-.48-4.42-2.35l-56.32-183.97c-.57-1.87.48-3.85,2.35-4.42l29.18-8.93,84.59-25.89,29.18-8.93c1.87-.57,3.84.47,4.42,2.34h0s14.4,47.03,14.4,47.03l.27.88Z"/>
      <path class="cls-3" d="M312.58,133.74l-17.35-56.67c-1.21-3.97-5.42-6.2-9.38-4.99,0,0,0,0,0,0l-41.02,12.56-84.58,25.9-41.02,12.56c-3.97,1.22-6.2,5.42-4.99,9.39l59.3,193.69c.97,3.16,3.89,5.32,7.19,5.32.75,0,1.49-.11,2.2-.33l28.12-8.61.88-.27v-.92l-.88.27-28.38,8.69c-3.5,1.07-7.21-.9-8.28-4.4l-59.3-193.69c-1.08-3.5.89-7.2,4.39-8.28,0,0,0,0,.01,0l41.02-12.56,84.58-25.89,41.02-12.56c.63-.19,1.29-.29,1.95-.29,2.91,0,5.48,1.91,6.33,4.69l17.27,56.42.27.88h.92l-.27-.88Z"/>
      <path class="cls-2" d="M168.15,128.28c-1.75,0-3.29-1.14-3.81-2.82l-5.7-18.61c-.64-2.1.54-4.33,2.64-4.97h0s77.82-23.82,77.82-23.82c2.1-.64,4.33.54,4.97,2.64l5.7,18.61c.64,2.1-.54,4.33-2.64,4.97l-77.82,23.82c-.38.12-.77.17-1.16.17Z"/>
      <circle class="cls-2" cx="198" cy="82.78" r="8.85"/>
      <circle class="cls-5" cx="198" cy="82.78" r="5.6"/>
      <path class="cls-1" d="M380.43,329.23h-149.49c-2.08,0-3.76-1.68-3.76-3.76v-179.13c0-2.08,1.68-3.76,3.76-3.76h149.49c2.08,0,3.76,1.68,3.76,3.76v179.13c0,2.08-1.68,3.76-3.76,3.76Z"/>
      <path class="cls-3" d="M311.66,133.74h-93.1c-4.15,0-7.51,3.37-7.52,7.52v180.36l.88-.27v-180.09c0-3.66,2.97-6.63,6.63-6.63h93.38l-.27-.88ZM392.82,133.74h-174.26c-4.15,0-7.51,3.37-7.52,7.52v202.57c0,4.15,3.37,7.51,7.52,7.52h174.26c4.15,0,7.51-3.37,7.52-7.52v-202.57c0-4.15-3.37-7.51-7.52-7.52ZM399.45,343.83c0,3.66-2.97,6.63-6.63,6.63h-174.26c-3.66,0-6.63-2.97-6.63-6.63v-202.57c0-3.66,2.97-6.63,6.63-6.63h174.26c3.66,0,6.63,2.97,6.63,6.63v202.57Z"/>
      <path class="cls-2" d="M346.38,153.2h-81.38c-2.2,0-3.98-1.78-3.98-3.98v-19.46c0-2.2,1.78-3.98,3.98-3.98h81.38c2.2,0,3.98,1.78,3.98,3.98v19.46c0,2.2-1.78,3.98-3.98,3.98Z"/>
      <circle class="cls-2" cx="305.69" cy="118.26" r="8.85"/>
      <circle class="cls-5" cx="305.69" cy="118.26" r="5.39"/>
    </g>
    <g>
      <path class="cls-8" d="M147.75,388.05v18.08h-4.05v-25.68h3.18l14.68,18.52v-18.48h4.09v25.64h-3.36l-14.54-18.08Z"/>
      <path class="cls-8" d="M182.11,406.31c-1.83,0-3.5-.37-5.01-1.1s-2.8-1.71-3.89-2.93-1.92-2.61-2.51-4.18c-.59-1.57-.89-3.17-.89-4.81s.31-3.35.94-4.92,1.49-2.95,2.59-4.16c1.1-1.21,2.4-2.16,3.91-2.88,1.51-.71,3.15-1.07,4.94-1.07s3.5.38,5.01,1.14c1.51.76,2.8,1.75,3.87,2.98,1.07,1.23,1.9,2.62,2.5,4.18.59,1.55.89,3.14.89,4.76,0,1.71-.31,3.35-.92,4.92-.62,1.57-1.48,2.95-2.59,4.14-1.11,1.19-2.42,2.15-3.92,2.86s-3.14,1.07-4.9,1.07ZM173.93,393.29c0,1.21.19,2.38.58,3.51.39,1.13.93,2.13,1.65,3,.71.87,1.57,1.56,2.59,2.08,1.01.52,2.15.78,3.4.78s2.45-.27,3.45-.81c1-.54,1.85-1.26,2.55-2.15.7-.89,1.23-1.89,1.59-3,.36-1.11.54-2.24.54-3.4,0-1.23-.19-2.41-.58-3.53s-.93-2.11-1.65-2.97c-.71-.86-1.57-1.54-2.57-2.06s-2.12-.78-3.35-.78c-1.3,0-2.46.27-3.47.81-1.01.54-1.87,1.25-2.57,2.12s-1.24,1.86-1.61,2.98c-.37,1.12-.56,2.26-.56,3.42Z"/>
      <path class="cls-8" d="M207.57,406.13v-25.68h11.18c1.16,0,2.22.24,3.2.72.98.48,1.81,1.12,2.51,1.9.7.78,1.25,1.68,1.65,2.68.4,1,.6,2.02.6,3.06,0,.87-.12,1.7-.36,2.5-.24.8-.58,1.53-1.01,2.21-.43.67-.96,1.26-1.59,1.75s-1.31.86-2.06,1.1l6.04,9.76h-4.59l-5.57-8.93h-5.93v8.93h-4.05ZM211.62,393.62h7.09c.58,0,1.1-.13,1.57-.38s.87-.6,1.21-1.05c.34-.45.6-.96.8-1.54.19-.58.29-1.19.29-1.84s-.11-1.27-.34-1.84c-.23-.58-.53-1.08-.9-1.52-.37-.43-.81-.78-1.3-1.03s-1.01-.38-1.54-.38h-6.87v9.58Z"/>
      <path class="cls-8" d="M249.09,402.55v3.58h-17.61v-25.68h17.29v3.58h-13.24v7.31h11.46v3.36h-11.46v7.85h13.56Z"/>
      <path class="cls-8" d="M251.11,393.11c0-1.54.28-3.08.83-4.61.55-1.53,1.37-2.91,2.44-4.12,1.07-1.22,2.38-2.2,3.92-2.95,1.54-.75,3.29-1.12,5.24-1.12,2.34,0,4.34.52,6,1.56,1.66,1.04,2.92,2.39,3.76,4.05l-3.18,2.13c-.36-.77-.8-1.42-1.3-1.95-.51-.53-1.06-.95-1.66-1.27-.6-.31-1.23-.54-1.88-.67s-1.28-.2-1.88-.2c-1.35,0-2.53.27-3.54.81-1.01.54-1.86,1.26-2.55,2.15-.69.89-1.21,1.89-1.56,3-.35,1.11-.52,2.22-.52,3.33,0,1.25.2,2.45.61,3.58.41,1.13.98,2.13,1.72,3s1.61,1.56,2.62,2.08c1.01.52,2.12.78,3.33.78.63,0,1.27-.08,1.94-.24.66-.16,1.3-.41,1.92-.76.62-.35,1.18-.79,1.7-1.32s.95-1.17,1.28-1.92l3.36,1.92c-.41.96-.99,1.81-1.74,2.55-.75.74-1.59,1.36-2.53,1.86-.94.51-1.93.89-2.98,1.16-1.05.26-2.08.4-3.09.4-1.81,0-3.46-.38-4.96-1.16-1.49-.77-2.78-1.78-3.87-3.02s-1.93-2.65-2.53-4.23c-.6-1.58-.9-3.19-.9-4.83Z"/>
      <path class="cls-8" d="M287.89,406.31c-1.83,0-3.5-.37-5.01-1.1s-2.8-1.71-3.89-2.93-1.92-2.61-2.51-4.18c-.59-1.57-.89-3.17-.89-4.81s.31-3.35.94-4.92,1.49-2.95,2.59-4.16c1.1-1.21,2.4-2.16,3.91-2.88s3.15-1.07,4.94-1.07,3.5.38,5.01,1.14c1.51.76,2.8,1.75,3.87,2.98,1.07,1.23,1.9,2.62,2.5,4.18.59,1.55.89,3.14.89,4.76,0,1.71-.31,3.35-.92,4.92-.62,1.57-1.48,2.95-2.59,4.14-1.11,1.19-2.42,2.15-3.92,2.86s-3.14,1.07-4.9,1.07ZM279.72,393.29c0,1.21.19,2.38.58,3.51.39,1.13.93,2.13,1.65,3,.71.87,1.57,1.56,2.59,2.08,1.01.52,2.15.78,3.4.78s2.45-.27,3.45-.81c1-.54,1.85-1.26,2.55-2.15.7-.89,1.23-1.89,1.59-3,.36-1.11.54-2.24.54-3.4,0-1.23-.19-2.41-.58-3.53s-.93-2.11-1.65-2.97c-.71-.86-1.57-1.54-2.57-2.06-1-.52-2.12-.78-3.35-.78-1.3,0-2.46.27-3.47.81-1.01.54-1.87,1.25-2.57,2.12s-1.24,1.86-1.61,2.98-.56,2.26-.56,3.42Z"/>
      <path class="cls-8" d="M304.42,406.13v-25.68h11.18c1.16,0,2.22.24,3.2.72.98.48,1.81,1.12,2.51,1.9s1.25,1.68,1.65,2.68c.4,1,.6,2.02.6,3.06,0,.87-.12,1.7-.36,2.5-.24.8-.58,1.53-1.01,2.21s-.96,1.26-1.59,1.75-1.31.86-2.06,1.1l6.04,9.76h-4.59l-5.57-8.93h-5.93v8.93h-4.05ZM308.47,393.62h7.09c.58,0,1.1-.13,1.57-.38.47-.25.87-.6,1.21-1.05.34-.45.6-.96.8-1.54.19-.58.29-1.19.29-1.84s-.11-1.27-.34-1.84c-.23-.58-.53-1.08-.9-1.52-.37-.43-.81-.78-1.3-1.03s-1.01-.38-1.54-.38h-6.87v9.58Z"/>
      <path class="cls-8" d="M328.33,406.13v-25.68h9.11c2.07,0,3.89.34,5.44,1.01,1.55.67,2.86,1.59,3.91,2.75s1.84,2.51,2.37,4.07c.53,1.55.8,3.21.8,4.97,0,1.95-.3,3.72-.89,5.3-.59,1.58-1.43,2.93-2.51,4.05s-2.4,1.99-3.94,2.6c-1.54.61-3.27.92-5.17.92h-9.11ZM345.83,393.26c0-1.35-.19-2.59-.56-3.73-.37-1.13-.92-2.1-1.65-2.91s-1.6-1.44-2.64-1.9c-1.04-.46-2.22-.69-3.54-.69h-5.06v18.52h5.06c1.35,0,2.55-.24,3.6-.71,1.05-.47,1.93-1.12,2.64-1.95.71-.83,1.25-1.81,1.61-2.95.36-1.13.54-2.36.54-3.69Z"/>
      <path class="cls-8" d="M369.41,386.49c-.24-.26-.59-.55-1.05-.85-.46-.3-.99-.58-1.61-.85-.61-.27-1.29-.48-2.02-.65-.74-.17-1.49-.25-2.26-.25-1.71,0-2.97.31-3.78.94-.81.63-1.21,1.5-1.21,2.6,0,.63.13,1.14.38,1.54.25.4.64.75,1.18,1.05.53.3,1.19.57,1.99.8.8.23,1.72.48,2.79.74,1.3.31,2.48.66,3.53,1.05s1.93.86,2.66,1.41c.72.56,1.28,1.24,1.68,2.04.4.81.6,1.79.6,2.95,0,1.3-.25,2.42-.74,3.36-.49.94-1.17,1.71-2.03,2.3-.86.59-1.85,1.03-2.98,1.3-1.13.28-2.35.42-3.65.42-1.95,0-3.84-.29-5.66-.89s-3.47-1.45-4.94-2.59l1.84-3.47c.31.31.76.66,1.36,1.05.59.39,1.28.74,2.06,1.07.78.33,1.63.6,2.55.83.92.23,1.87.34,2.86.34,1.59,0,2.82-.28,3.69-.83s1.3-1.37,1.3-2.46c0-.65-.16-1.19-.49-1.63s-.79-.81-1.39-1.14c-.6-.33-1.34-.62-2.21-.89-.87-.26-1.86-.54-2.97-.83-1.28-.34-2.39-.69-3.34-1.07-.95-.37-1.74-.83-2.37-1.36s-1.1-1.15-1.43-1.86-.49-1.57-.49-2.59c0-1.25.24-2.37.72-3.35.48-.98,1.14-1.8,1.97-2.46s1.81-1.16,2.95-1.5c1.13-.34,2.36-.51,3.69-.51,1.74,0,3.34.28,4.81.83,1.47.55,2.76,1.24,3.87,2.06l-1.84,3.33Z"/>
      <path class="cls-8" d="M195.81,449.53v-25.68h17.11v3.58h-13.06v7.67h10.92v3.36h-10.92v11.07h-4.05Z"/>
      <path class="cls-8" d="M226.84,449.71c-1.83,0-3.5-.37-5.01-1.1s-2.8-1.71-3.89-2.93-1.92-2.61-2.51-4.18c-.59-1.57-.89-3.17-.89-4.81s.31-3.35.94-4.92,1.49-2.95,2.59-4.16c1.1-1.21,2.4-2.16,3.91-2.88,1.51-.71,3.15-1.07,4.94-1.07s3.5.38,5.01,1.14c1.51.76,2.8,1.75,3.87,2.98,1.07,1.23,1.9,2.62,2.5,4.18.59,1.55.89,3.14.89,4.76,0,1.71-.31,3.35-.92,4.92-.62,1.57-1.48,2.95-2.59,4.14-1.11,1.19-2.42,2.15-3.92,2.86s-3.14,1.07-4.9,1.07ZM218.67,436.69c0,1.21.19,2.38.58,3.51.39,1.13.93,2.13,1.65,3,.71.87,1.57,1.56,2.59,2.08,1.01.52,2.15.78,3.4.78s2.45-.27,3.45-.81c1-.54,1.85-1.26,2.55-2.15.7-.89,1.23-1.89,1.59-3,.36-1.11.54-2.24.54-3.4,0-1.23-.19-2.41-.58-3.53s-.93-2.11-1.65-2.97c-.71-.86-1.57-1.54-2.57-2.06s-2.12-.78-3.35-.78c-1.3,0-2.46.27-3.47.81-1.01.54-1.87,1.25-2.57,2.12s-1.24,1.86-1.61,2.98c-.37,1.12-.56,2.26-.56,3.42Z"/>
      <path class="cls-8" d="M254.08,446.06c1.35,0,2.47-.27,3.36-.8.89-.53,1.61-1.22,2.15-2.08.54-.86.93-1.83,1.16-2.93.23-1.1.34-2.22.34-3.38v-13.02h4.09v13.02c0,1.76-.21,3.42-.62,4.97-.41,1.56-1.06,2.92-1.95,4.09-.89,1.17-2.04,2.09-3.45,2.77-1.41.68-3.1,1.01-5.08,1.01s-3.78-.36-5.19-1.07-2.55-1.66-3.42-2.86c-.87-1.19-1.5-2.56-1.88-4.1-.39-1.54-.58-3.15-.58-4.81v-13.02h4.05v13.02c0,1.18.11,2.32.34,3.42.23,1.1.61,2.07,1.16,2.93.54.86,1.27,1.54,2.17,2.06.9.52,2.02.78,3.35.78Z"/>
      <path class="cls-8" d="M274.62,431.45v18.08h-4.05v-25.68h3.18l14.68,18.52v-18.48h4.09v25.64h-3.36l-14.54-18.08Z"/>
      <path class="cls-8" d="M298.31,449.53v-25.68h9.11c2.07,0,3.89.34,5.44,1.01,1.56.67,2.86,1.59,3.91,2.75s1.84,2.51,2.37,4.07c.53,1.55.8,3.21.8,4.97,0,1.95-.3,3.72-.89,5.3-.59,1.58-1.43,2.93-2.51,4.05s-2.4,1.99-3.94,2.6c-1.54.61-3.27.92-5.17.92h-9.11ZM315.81,436.66c0-1.35-.19-2.59-.56-3.73-.37-1.13-.92-2.1-1.65-2.91-.72-.81-1.6-1.44-2.64-1.9-1.04-.46-2.22-.69-3.54-.69h-5.06v18.52h5.06c1.35,0,2.55-.24,3.6-.71,1.05-.47,1.93-1.12,2.64-1.95.71-.83,1.25-1.81,1.61-2.95.36-1.13.54-2.36.54-3.69Z"/>
    </g>
  </g>
</svg>