<?xml version="1.0" encoding="UTF-8"?>
<svg id="Layer_2" data-name="Layer 2" xmlns="http://www.w3.org/2000/svg" viewBox="0 0 552.17 478.51">
  <defs>
    <style>
      .cls-1 {
        fill: #627a85;
      }

      .cls-1, .cls-2, .cls-3, .cls-4, .cls-5, .cls-6, .cls-7, .cls-8, .cls-9, .cls-10, .cls-11, .cls-12, .cls-13, .cls-14, .cls-15, .cls-16, .cls-17, .cls-18, .cls-19, .cls-20, .cls-21 {
        stroke-width: 0px;
      }

      .cls-2 {
        fill: #ebeaee;
      }

      .cls-3 {
        fill: #eeeaf1;
      }

      .cls-4 {
        fill: #747474;
      }

      .cls-5 {
        fill: #fbae38;
      }

      .cls-6 {
        fill: #99938a;
      }

      .cls-7 {
        fill: #dde9f7;
      }

      .cls-8 {
        fill: #fbae39;
      }

      .cls-9 {
        fill: #566d7a;
      }

      .cls-10 {
        fill: #6e8c99;
      }

      .cls-11 {
        fill: #fff;
      }

      .cls-12 {
        fill: #ecebee;
      }

      .cls-13 {
        opacity: .23;
      }

      .cls-13, .cls-21 {
        fill: #d6d4d4;
      }

      .cls-14 {
        fill: #ef6564;
      }

      .cls-15 {
        fill: #818181;
      }

      .cls-16 {
        fill: #edecf0;
      }

      .cls-17 {
        fill: #708ac0;
      }

      .cls-18 {
        fill: #ccd3db;
      }

      .cls-19 {
        fill: #7e98cc;
      }

      .cls-20 {
        fill: #ececef;
      }

      .cls-21 {
        opacity: .25;
      }
    </style>
  </defs>
  <g id="Layer_1-2" data-name="Layer 1">
    <g>
      <g>
        <path class="cls-21" d="M552.17,255.24c-.31,123.72-100.61,223.61-224.19,223.26-123.76-.34-223.18-100.91-222.81-225.37.37-122.44,101.36-222.04,224.74-221.65,122.63.39,222.57,101,222.26,223.75Z"/>
        <path class="cls-13" d="M415.33,207.9c-.29,114.95-93.48,207.77-208.31,207.45C92.03,415.02-.35,321.59,0,205.95.34,92.18,94.18-.37,208.82,0c113.94.36,206.8,93.84,206.52,207.9Z"/>
      </g>
      <path class="cls-9" d="M121.66,157.14c-.06-13.14-.45-26.3-.08-39.43.35-12.41,12.24-23.5,24.7-23.5,92.05-.05,184.1-.01,276.15-.05,15.51,0,26.83,12.56,26.33,26.04-.46,12.3-.18,24.63-.22,36.94-4.38-.43-7.69,2.47-11.53,3.74-1.66-2.13-3.84-3.08-6.52-3.03-1.5.03-3-.03-4.5-.03-93.95,0-187.9,0-281.84,0q-9.87,0-9.89,10.06c0,64.63,0,129.26-.03,193.89,0,3.11.66,6.37-1.34,9.21-2.63.31-2.34-1.86-2.61-3.29-.43-2.29-.23-4.65-.23-6.98,0-63.63,0-127.26,0-190.89,0-1.67-.09-3.34,0-5,.23-4.08-.79-6.93-5.71-6.5-1,.09-1.91-.52-2.68-1.19Z"/>
      <path class="cls-8" d="M482.67,209.48c.3,1.1.9,2.21.86,3.3-.35,11.09,1.07,22.25-.77,33.26-1.53,9.12-10.12,15.92-19.41,16.09-4.97.09-9.94.22-14.91.33-3.17,1.96-6.68.99-10.05,1.16-22.14.19-44.28.19-66.42.02-13.99-.11-23.28-8.98-23.76-22.99-.51-14.97-.51-29.97,0-44.94.48-14.2,9.54-22.88,23.68-22.98,22.14-.17,44.28-.19,66.42.02,3.37.15,6.85-.72,10.08.97,1.75.63,4.49-.13,4.37,3.11,1.92,5.11,2.07,10.33.94,15.63-2.37,1.67-5.11,1.26-7.74,1.27-21.82.04-43.64,0-65.46.03-2.32,0-4.69-.16-6.9.77-.91.38-1.91.86-2.01,2-.14,1.48,1.08,1.96,2.14,2.39,2.22.88,4.59.71,6.91.71,23.15.02,46.31,0,69.46.02,2.5,0,5-.12,7.48.25,1.51.2,2.98.67,4.15,1.6,5.28,4.18,11.24,6.37,17.99,6.47,1.16.02,2.33.3,2.96,1.51Z"/>
      <path class="cls-1" d="M121.66,157.14q9.95-.04,9.95,10.04c0,65.92,0,131.84.04,197.77,0,2.08-.74,4.35.87,6.24,2.2,1.32,3.08,3.93,5.21,5.33,3.96,3.77,8.86,4.06,13.96,4.06,73.17-.04,146.33-.03,219.5-.03,2.99,0,5.99-.03,8.96.29,1.17.11,2.25.5,3.23,1.15,3.05,3.72,7.37,6.41,9.19,11.16h0c-1.57.85-3.27.44-4.9.44-79.71.02-159.41.02-239.12,0-1.63,0-3.33.43-4.89-.47-12.91-2.2-21.47-11.59-22.1-24.41-.21-4.32-.13-8.65-.13-12.97,0-64.38.01-128.75.03-193.13,0-1.83.12-3.65.18-5.48Z"/>
      <path class="cls-14" d="M482.67,209.48c-9.13.49-16.99-2.56-23.81-8.52-3.51-2-4.74-5.41-5.65-9.04-.52-5.01-1.28-10.02-.46-15.08,2.14-6.09,4.88-11.5,10.16-15.87,8.39-6.94,26.07-6.45,33.76.69,6.18,5.75,9.45,12.61,9.81,20.9.44,9.99-9.75,25.32-21.12,25.81-.91.04-1.79.72-2.68,1.11Z"/>
      <path class="cls-10" d="M392.58,393.16c-3.27-3.13-6.76-6.06-9.08-10.05,5.8-2.45,12.03-1.84,18.06-2.32,6.62-.53,13.3.2,19.95-.04,9.93-.36,14.54-5.18,14.57-15.03.03-8.48-.34-16.97,1.49-25.33,1.06-2.5,2.61-1.39,3.85-.34,2.74,2.33,5.47,4.7,7.05,8.05.03,7.62.57,15.28-.03,22.85-.88,11.06-10.92,22.01-24.05,22.19-10.6.15-21.21.02-31.81,0Z"/>
      <path class="cls-1" d="M448.47,348.11c-3.32-2.98-6.64-5.96-9.97-8.94-1.3-.69-1.65-1.82-1.49-3.19-.08-22.44-.04-44.87-.01-67.3,0-2.13-.2-4.36,1.3-6.2,3.38-.47,6.76-.47,10.14,0,.45,28.55.39,57.1.03,85.64Z"/>
      <path class="cls-17" d="M143.67,393.13c82.97,0,165.94.01,248.91.02-1.53,1.5-3.47.87-5.22.87-79.48.03-158.97.02-238.45-.03-1.76,0-3.69.59-5.24-.86Z"/>
      <path class="cls-19" d="M448.38,173.73c-3.34.76-6.7.58-10.06.14-1.86-4.19-1.98-8.36.11-12.52.74-4.94,3.71-6.18,10.11-4.2.13,5.53.53,11.06-.16,16.58Z"/>
      <path class="cls-11" d="M438.43,161.35c-.03,4.17-.07,8.35-.11,12.52-3.15.15-6.29.42-9.43.43-19.15.04-38.31,0-57.46.03-12.77.02-21.46,8.33-21.61,21.09-.19,15.15-.18,30.31,0,45.47.15,12.57,9.05,21.12,21.6,21.14,20.65.03,41.3.02,61.96.06,1.64,0,3.29.26,4.93.4.02,23.81.05,47.62.07,71.42,0,1.14.22,2.36-.79,3.27-2.89.54-4.05-1.91-5.59-3.44-15.46-15.34-30.82-30.78-46.24-46.16-9.4-9.39-18.77-9.46-28.24-.11-10.06,9.93-19.99,19.98-30,29.95-1.52,1.52-2.87,3.25-4.86,4.24-3.04.6-4.49-1.77-6.19-3.46-15.23-15.15-30.39-30.37-45.59-45.54-9.84-9.82-19.69-9.82-29.54.02-33.21,33.19-66.4,66.41-99.64,99.58-1.7,1.7-3.01,4.11-5.92,4.17-2.18-1.05-2.51-3.26-3.24-5.21.01-69.1.02-138.2.04-207.3q0-7.52,7.38-7.54c97.07,0,194.15.02,291.22-.08,4,0,6.74.65,7.27,5.08Z"/>
      <path class="cls-7" d="M284.62,142.25c-22.81,0-45.62.02-68.43,0-10.71,0-18.5-6.95-18.55-16.45-.05-9.82,7.79-17.34,18.61-17.48,12.15-.16,24.31-.04,36.46-.04,33.47,0,66.93-.03,100.4.02,11.49.02,19.32,6.97,19.45,16.99.11,9.42-7.06,16.9-16.51,16.93-23.81.07-47.62.02-71.43.03Z"/>
      <path class="cls-8" d="M406.82,140.45c-9.3-.07-15.39-6.64-15.14-16.4.18-7.14,7.91-13.97,16.08-13.77,8.74.21,15.07,7.36,14.72,15.89-.29,7.05-5.74,15.06-15.67,14.28Z"/>
      <path class="cls-6" d="M162.92,140.38c-8.96,1.21-15.32-7.82-15.26-15.31.07-8.59,7.1-14.83,16.55-14.77,7.14.04,14.27,7.59,14.26,15.07-.02,8.68-6.59,15.03-15.55,15.01Z"/>
      <path class="cls-2" d="M453.21,191.93c1.88,3.01,3.77,6.03,5.65,9.04-27.64.03-55.27.08-82.91.08-3.21,0-7.02-.09-6.91-4.49.1-4.02,3.76-4.11,6.79-4.12,23.48-.05,46.95-.03,70.43-.07,2.32,0,4.64-.28,6.95-.43Z"/>
      <path class="cls-20" d="M416.53,206.58c13.97,0,27.93-.04,41.9.03,2.84.02,6.01.14,5.98,4.24-.03,3.94-2.85,4.31-5.91,4.31-27.78-.01-55.57,0-83.35-.01-3,0-6.08-.31-6.13-4.16-.05-3.99,3.16-4.07,6.09-4.07,13.81-.01,27.62,0,41.43,0,0-.11,0-.22,0-.33Z"/>
      <path class="cls-12" d="M416.87,243.38c-13.65,0-27.29,0-40.94,0-1.33,0-2.69.04-3.98-.21-1.79-.34-2.91-1.48-3.1-3.41-.19-1.94.73-3.12,2.4-3.94,1.9-.92,3.91-.67,5.89-.67,26.46-.02,52.92-.02,79.38-.01,1.16,0,2.33,0,3.49.09,2.64.22,4.39,1.32,4.4,4.31.02,3.24-2.01,3.82-4.62,3.82-14.31,0-28.62,0-42.94,0,0,0,0,.01,0,.02Z"/>
      <path class="cls-16" d="M416.99,229.38c-13.99,0-27.99,0-41.98,0-2.95,0-6.12-.1-6-4.14.11-3.84,3.08-4.22,6.14-4.11.67.02,1.33,0,2,0,12.16,0,24.32.02,36.49.01,14.49-.01,28.99-.06,43.48-.05,3.1,0,7.05-.66,7.19,3.97.16,5.21-4.18,4.21-7.32,4.23-13.33.09-26.66.04-39.99.04v.05Z"/>
      <path class="cls-15" d="M135.77,376.4c34.77-34.71,69.53-69.41,104.3-104.12,11.2-11.18,21.01-11.16,32.23.06,15.42,15.43,30.83,30.88,46.27,46.28,1.1,1.09,1.82,2.99,3.97,2.44,5.73,5.27,10.21,11.7,16.01,16.93,14.38,12.97,27.19,27.52,41.07,41,.88.85,2.37,1.44,1.91,3.14-78.1.03-156.2.06-234.3.07-4.78,0-8.74-1.7-11.46-5.8Z"/>
      <path class="cls-4" d="M381.53,382.13c-7.39-6.87-14.38-14.11-21.28-21.48-9.46-10.11-19.91-19.3-29.67-29.14-3.06-3.09-6.49-6.09-8.04-10.44,12.21-12.26,24.29-24.64,36.66-36.72,7.48-7.3,18.59-6.73,26.41,1.04,16.17,16.07,32.25,32.23,48.37,48.35,1.17,1.17,2.4,2.29,3.6,3.44.31.67.62,1.33.93,2-.71,9.58-.94,19.16-.91,28.76.02,7.69-5.69,13.8-13.44,14.25-4.28.25-8.59,0-12.88.1-9.26.23-18.52.54-27.77.82-.66-.33-1.32-.66-1.98-.98Z"/>
      <path class="cls-3" d="M478.7,189.11c-1.06.99-2.29,2.08-3.44,3.25-2.13,2.16-4.37,3.99-7.15,1.08-2.49-2.62-1.2-5,1.13-6.76,4.03-3.04,3.52-5.63-.18-8.51-2.39-1.87-3.22-4.5-.81-6.85,2.47-2.41,5.05-1.23,6.83,1.08,2.87,3.73,5.32,4.19,8.31.08,1.68-2.31,4.32-3.61,6.83-1.2,2.75,2.65,1.32,5.28-1.17,7.15-3.83,2.88-3.31,5.31.09,8.1,2.16,1.77,3.84,4.16,1.38,6.8-2.58,2.77-4.98,1.36-7.25-.86-1.26-1.24-2.23-2.94-4.58-3.33Z"/>
      <path class="cls-18" d="M201.96,272.19c-22.75,1.2-43.71-18.81-47.58-39.53-3.6-19.31,7.28-44.62,28.68-53.22,2.73-1.1,5.58-2.17,8.12-.65,2.77,1.65,1.72,4.99,1.29,7.38-1.96,10.87.98,20.66,7.35,29.04,10.62,13.97,24.74,18.73,42.37,14.9,2.2-.48,4.23-1.26,5.97.67,1.61,1.78,1.38,3.72.76,6.03-5.41,20.25-25.64,36.35-46.96,35.39Z"/>
    </g>
    <g>
      <path class="cls-5" d="M87.98,441.48v24.7h-5.53v-35.07h4.35l20.05,25.29v-25.24h5.58v35.02h-4.59l-19.86-24.7Z"/>
      <path class="cls-5" d="M134.91,466.42c-2.5,0-4.78-.5-6.84-1.51-2.06-1-3.83-2.34-5.31-4-1.48-1.66-2.63-3.56-3.43-5.71-.81-2.14-1.21-4.33-1.21-6.57s.43-4.58,1.28-6.72c.86-2.14,2.03-4.03,3.53-5.68,1.5-1.65,3.28-2.96,5.33-3.93,2.06-.97,4.31-1.46,6.74-1.46s4.78.52,6.84,1.56c2.06,1.04,3.82,2.4,5.29,4.08,1.46,1.68,2.6,3.58,3.41,5.71.81,2.12,1.21,4.29,1.21,6.5,0,2.34-.42,4.58-1.26,6.72-.84,2.14-2.02,4.03-3.53,5.66-1.52,1.63-3.3,2.93-5.36,3.9-2.06.97-4.29,1.46-6.69,1.46ZM123.74,448.64c0,1.65.26,3.24.79,4.79.53,1.55,1.28,2.91,2.25,4.1.97,1.19,2.15,2.13,3.53,2.84,1.38.71,2.93,1.06,4.64,1.06s3.35-.37,4.72-1.11c1.37-.74,2.53-1.72,3.48-2.94.96-1.22,1.68-2.58,2.17-4.1.49-1.51.74-3.06.74-4.64,0-1.68-.26-3.29-.79-4.82-.53-1.53-1.28-2.88-2.25-4.05-.97-1.17-2.14-2.11-3.51-2.82-1.37-.71-2.89-1.06-4.57-1.06-1.78,0-3.36.37-4.74,1.11-1.38.74-2.55,1.7-3.51,2.89-.96,1.19-1.69,2.54-2.2,4.08-.51,1.53-.77,3.09-.77,4.67Z"/>
      <path class="cls-5" d="M169.68,466.18v-35.07h5.53v35.07h-5.53Z"/>
      <path class="cls-5" d="M212.6,466.18v-25.24l-10.42,19.12h-3.06l-10.47-19.12v25.24h-5.53v-35.07h5.93l11.61,21.44,11.61-21.44h5.93v35.07h-5.58Z"/>
      <path class="cls-5" d="M236.41,431.11h4.84l13.83,35.07h-5.83l-3.7-9.53h-13.53l-3.66,9.53h-5.88l13.93-35.07ZM244.46,452.54l-5.63-15.07-5.83,15.07h11.46Z"/>
      <path class="cls-5" d="M282.7,461.83c-2.96,3.06-6.37,4.59-10.22,4.59-2.34,0-4.51-.49-6.52-1.46-2.01-.97-3.75-2.28-5.24-3.93s-2.64-3.56-3.48-5.73c-.84-2.17-1.26-4.45-1.26-6.82s.42-4.63,1.26-6.77c.84-2.14,2-4.02,3.48-5.63,1.48-1.61,3.24-2.89,5.29-3.83,2.04-.94,4.26-1.41,6.67-1.41,3.36,0,6.17.7,8.45,2.1,2.27,1.4,3.98,3.25,5.14,5.56l-4.25,3.06c-.96-1.91-2.27-3.34-3.95-4.3-1.68-.95-3.52-1.43-5.53-1.43-1.65,0-3.15.35-4.5,1.06-1.35.71-2.5,1.65-3.46,2.82-.96,1.17-1.69,2.53-2.2,4.08-.51,1.55-.77,3.16-.77,4.84,0,1.78.29,3.44.86,4.99s1.37,2.9,2.37,4.05c1,1.15,2.2,2.07,3.58,2.74,1.38.68,2.88,1.01,4.5,1.01,1.78,0,3.48-.41,5.11-1.23,1.63-.82,3.19-2.12,4.67-3.9v-3.75h-7.36v-4.1h12v17.73h-4.64v-4.35Z"/>
      <path class="cls-5" d="M317.72,461.29v4.89h-24.06v-35.07h23.61v4.89h-18.08v9.98h15.66v4.59h-15.66v10.72h18.52Z"/>
      <path class="cls-5" d="M335.65,466.18v-35.07h23.36v4.89h-17.83v10.47h14.92v4.59h-14.92v15.12h-5.53Z"/>
      <path class="cls-5" d="M378.03,466.42c-2.5,0-4.78-.5-6.84-1.51-2.06-1-3.83-2.34-5.31-4-1.48-1.66-2.63-3.56-3.43-5.71-.81-2.14-1.21-4.33-1.21-6.57s.43-4.58,1.28-6.72c.86-2.14,2.03-4.03,3.53-5.68,1.5-1.65,3.28-2.96,5.33-3.93,2.06-.97,4.31-1.46,6.74-1.46s4.78.52,6.84,1.56c2.06,1.04,3.82,2.4,5.29,4.08,1.46,1.68,2.6,3.58,3.41,5.71.81,2.12,1.21,4.29,1.21,6.5,0,2.34-.42,4.58-1.26,6.72-.84,2.14-2.02,4.03-3.53,5.66-1.52,1.63-3.3,2.93-5.36,3.9-2.06.97-4.29,1.46-6.69,1.46ZM366.86,448.64c0,1.65.26,3.24.79,4.79.53,1.55,1.28,2.91,2.25,4.1.97,1.19,2.15,2.13,3.53,2.84,1.38.71,2.93,1.06,4.64,1.06s3.35-.37,4.72-1.11c1.37-.74,2.53-1.72,3.48-2.94.96-1.22,1.68-2.58,2.17-4.1.49-1.51.74-3.06.74-4.64,0-1.68-.26-3.29-.79-4.82-.53-1.53-1.28-2.88-2.25-4.05-.97-1.17-2.14-2.11-3.51-2.82-1.37-.71-2.89-1.06-4.57-1.06-1.78,0-3.36.37-4.74,1.11-1.38.74-2.55,1.7-3.51,2.89-.96,1.19-1.69,2.54-2.2,4.08-.51,1.53-.77,3.09-.77,4.67Z"/>
      <path class="cls-5" d="M415.22,461.43c1.84,0,3.38-.36,4.59-1.09,1.22-.72,2.2-1.67,2.94-2.84.74-1.17,1.27-2.5,1.58-4,.31-1.5.47-3.04.47-4.62v-17.78h5.58v17.78c0,2.4-.28,4.67-.84,6.79-.56,2.12-1.45,3.98-2.67,5.58-1.22,1.6-2.79,2.86-4.72,3.78-1.93.92-4.24,1.38-6.94,1.38s-5.16-.49-7.09-1.46c-1.93-.97-3.48-2.27-4.67-3.9s-2.04-3.5-2.57-5.61c-.53-2.11-.79-4.3-.79-6.57v-17.78h5.53v17.78c0,1.61.16,3.17.47,4.67.31,1.5.84,2.83,1.58,4,.74,1.17,1.73,2.11,2.96,2.82s2.76,1.06,4.57,1.06Z"/>
      <path class="cls-5" d="M443.28,441.48v24.7h-5.53v-35.07h4.35l20.05,25.29v-25.24h5.58v35.02h-4.59l-19.86-24.7Z"/>
      <path class="cls-5" d="M475.63,466.18v-35.07h12.45c2.83,0,5.31.46,7.43,1.38,2.12.92,3.9,2.17,5.33,3.75,1.43,1.58,2.51,3.43,3.24,5.56.72,2.12,1.09,4.39,1.09,6.79,0,2.67-.4,5.08-1.21,7.24-.81,2.16-1.95,4-3.43,5.53s-3.28,2.72-5.38,3.56-4.46,1.26-7.06,1.26h-12.45ZM499.54,448.59c0-1.84-.26-3.54-.77-5.09-.51-1.55-1.26-2.87-2.25-3.98s-2.19-1.97-3.61-2.59c-1.42-.62-3.03-.94-4.84-.94h-6.92v25.29h6.92c1.84,0,3.48-.32,4.92-.96,1.43-.64,2.63-1.53,3.61-2.67.97-1.14,1.7-2.48,2.2-4.03.49-1.55.74-3.23.74-5.04Z"/>
    </g>
  </g>
</svg>