<?xml version="1.0" encoding="UTF-8"?>
<svg id="Layer_2" data-name="Layer 2" xmlns="http://www.w3.org/2000/svg" viewBox="0 0 586.01 270.26">
  <defs>
    <style>
      .cls-1 {
        fill: #fefefe;
      }

      .cls-1, .cls-2, .cls-3, .cls-4, .cls-5 {
        stroke-width: 0px;
      }

      .cls-2 {
        fill: #e6de13;
      }

      .cls-3 {
        fill: #909295;
      }

      .cls-4 {
        fill: #299826;
      }

      .cls-5 {
        fill: #d22e12;
      }
    </style>
  </defs>
  <g id="Layer_1-2" data-name="Layer 1">
    <g>
      <path class="cls-5" d="M261.47,94.51c0,27.94.12,55.87-.04,83.81-.13,22.91-7.41,43.21-23.25,60.06-13.15,13.99-29.24,22.82-48.25,25.77-27.32,4.24-51.48-2.88-71.94-21.49-14.94-13.59-23.89-30.62-26.53-50.66-3.55-26.9,3.98-50.52,22.47-70.37,13.26-14.23,29.76-22.81,49.05-25.68,20.97-3.12,40.52.97,58.55,12.16.38.23.75.8,1.21.53.41-.25.17-.86.17-1.31.02-32.32.05-64.65.02-96.97,0-1.33.26-1.71,1.66-1.7,11.81.07,23.62.05,35.42.01,1.17,0,1.48.29,1.48,1.47-.04,28.12-.03,56.25-.03,84.37ZM175.88,226.92c25.58.16,46.33-20.64,46.89-45.71.58-25.59-19.95-47.71-46.49-47.84-26.21-.13-47.24,20.79-47.27,46.79-.03,25.78,21,46.76,46.86,46.76Z"/>
      <path class="cls-5" d="M274.12,175.94v-1.56c0-26.85-.03-53.7.01-80.55.02-13.26,2.79-25.95,8.88-37.75,13.07-25.29,33.69-40.66,61.66-46.12,4.5-.88,9.07-1.2,13.65-1.29,1.03-.02,1.24.32,1.23,1.28-.03,11.94-.03,23.88,0,35.82,0,1.02-.2,1.36-1.3,1.38-22.89.47-42.24,17.79-45.2,40.44-.23,1.73-.28,3.48-.49,5.2-.16,1.31.21,1.74,1.64,1.74,14.55-.06,29.1-.02,43.64-.07,1.33,0,1.73.26,1.72,1.67-.07,11.42-.06,22.84,0,34.26,0,1.37-.24,1.81-1.74,1.81-14.55-.07-29.1-.03-43.64-.07-1.26,0-1.64.27-1.64,1.6.04,43.23.03,86.45.03,129.68,0,2.15.28,1.84-1.9,1.84-11.71.01-23.43-.02-35.14.04-1.3,0-1.53-.38-1.53-1.58.03-28.74.03-57.48.03-86.22v-1.55s.06,0,.08,0Z"/>
      <path class="cls-5" d="M8.7,219.64c0-14.58-.46-29.18.11-43.74.79-20.44,8.51-38.3,22.38-53.35,13.45-14.59,30.12-23.35,49.71-26.5,3.87-.62,7.77-.94,11.7-.96.98,0,1.38.13,1.38,1.28-.05,11.94-.05,23.88,0,35.82,0,1.09-.33,1.3-1.35,1.33-21.08.59-38,14.84-43.53,33.11-1.32,4.36-2,8.81-2,13.37.01,27.89,0,55.78,0,83.68q0,1.91-1.97,1.91c-11.72,0-23.43-.02-35.15.03-1.2,0-1.58-.22-1.57-1.52.05-14.82.03-29.63.03-44.45.08,0,.17,0,.25,0Z"/>
      <path class="cls-4" d="M3.45,125.69C1.59,119.01.5,112.47,0,105.82c-.05-.66.1-.92.75-1.06,7.32-1.5,14.06-4.55,20.69-7.83,15.82-7.84,30.41-17.64,44.7-27.93,8.5-6.12,16.51-12.9,25.13-18.86,10.76-7.45,22.17-13.61,34.9-17.01,24.09-6.43,45.14-.7,63.28,16.12,9.7,8.99,17.11,19.67,22.8,31.58.16.34.33.68.47,1.02.05.13.06.27.1.49-.94.04-1.73-.43-2.54-.7-15.82-5.27-32.04-8.59-48.64-10.09-14-1.27-28-1.26-41.99.1-24.63,2.4-48.22,8.61-70.44,19.64-14.85,7.37-28.37,16.66-40.11,28.43-1.89,1.89-3.68,3.87-5.67,5.97Z"/>
      <path class="cls-2" d="M132.01,4.93c-21.47.28-39.11,8.9-53.86,24.03-5.57,5.71-9.88,12.36-14.49,18.81-10.07,14.09-21.91,26.42-36.46,35.99-7.92,5.21-16.3,9.46-25.57,11.77-1.34.33-1.5-.09-1.41-1.25,1.71-21.7,9.32-41.06,23.32-57.77C38.4,18.78,57.2,7.35,79.82,2.38c17.16-3.77,34.2-3.02,51.04,2.01.39.12.84.12,1.15.54Z"/>
      <path class="cls-3" d="M531.31,240.62c.23,7.67-.01,15.31.03,22.95,0,.48.38,1.31-.5,1.37-1.01.07-2.07.29-3.04-.18-.16-.08-.13-.61-.13-.93,0-9.1.01-18.21-.03-27.31,0-.99.4-1.06,1.23-1.18,2.26-.33,3.54.56,4.69,2.54,3.73,6.39,8.01,12.45,11.51,18.98.37.69.72,1.39,1.09,2.09,0-2.33,0-4.59,0-6.86-.01-5.14,0-10.28-.06-15.42-.01-.98.29-1.33,1.29-1.3,2.96.08,2.4-.27,2.41,2.37.03,8.54-.01,17.07.03,25.61,0,1.22-.22,1.66-1.59,1.71-1.73.07-2.7-.51-3.57-1.99-3.88-6.58-8.22-12.87-11.89-19.57-.52-.94-.99-1.91-1.48-2.86Z"/>
      <path class="cls-3" d="M354.15,264.98c-1.65,0-2.91.02-4.17,0-.99-.02-1.42-.91-1.93-1.51-.87-1.03-1.47-1.18-2.68-.29-3.18,2.35-6.82,2.91-10.6,1.73-5.57-1.74-7.58-8.53-3.95-13.12.73-.93,1.53-1.83,2.58-2.39,1.15-.62,1.32-1.15.53-2.31-1.47-2.14-1.98-4.56-1.21-7.14.81-2.74,3.29-4.75,6.09-4.96,3.54-.26,5.92.91,7.08,3.48,1.31,2.89.38,6.22-2.41,8.43-.85.67-1.79,1.21-2.73,1.75-.55.32-.8.54-.26,1.13,1.98,2.21,3.94,4.44,5.86,6.71.59.7.92.58,1.3-.15,1-1.95,1.68-4.02,1.94-6.17.17-1.39.78-1.55,1.92-1.52,2.03.06,2.02.01,1.58,2.03-.64,2.97-1.53,5.84-3.35,8.32-.49.66-.17.99.23,1.42,1.31,1.41,2.61,2.84,4.18,4.55ZM338.93,262.46c1.79,0,4.01-.87,5.18-1.96.45-.42.65-.74.16-1.28-2.4-2.66-4.77-5.33-7.15-8-.36-.41-.68-.5-1.21-.19-2.27,1.32-3.62,4.64-2.88,7.26.7,2.51,3.06,4.18,5.9,4.16ZM342.95,241.37c.01-2.07-1.08-3.48-2.91-3.76-1.66-.26-3.42.86-3.87,2.62-.61,2.37.1,4.47,1.58,6.35.19.24.37.37.71.3,1.93-.38,4.48-3.49,4.49-5.51Z"/>
      <path class="cls-3" d="M448.27,250.31c0-4.44.01-8.87-.01-13.31,0-.76.1-1.28.99-1.36,4.37-.44,8.75-.82,13.09.2,7.67,1.8,10.61,7.98,10.2,14.85-.19,3.11-.98,6.04-2.81,8.62-2.71,3.81-6.7,5.14-11.09,5.72-3.02.4-6.02.12-9.04,0-1.02-.04-1.37-.34-1.36-1.41.06-4.43.03-8.87.03-13.31ZM452.19,250.28v9.05c0,2.48,0,2.63,2.44,2.74,3.94.18,7.77-.3,10.69-3.37,2.97-3.13,3.41-7.04,3.01-11.08-.28-2.79-1.34-5.29-3.73-7.02-3.56-2.59-7.58-2.47-11.66-2.03-.84.09-.74.69-.74,1.25,0,3.49,0,6.97,0,10.46Z"/>
      <path class="cls-3" d="M395.3,165.36c0-4.39.03-8.77-.02-13.16-.01-.95.25-1.28,1.21-1.4,4.56-.56,9.12-.93,13.61.37,5.44,1.58,8.6,5.21,9.32,10.86.67,5.28-.24,10.14-4.12,14.11-2.36,2.41-5.41,3.38-8.61,3.88-3.42.53-6.86.39-10.3.1-1-.08-1.11-.5-1.11-1.32.03-4.48.01-8.96.01-13.44ZM399.24,165.46c0,3.39.06,6.79-.03,10.17-.04,1.29.44,1.66,1.62,1.6,1.08-.06,2.17.02,3.25-.01,5.7-.19,9.64-3.17,10.96-8.26.55-2.13.62-4.31.33-6.45-.54-4.05-2.64-6.99-6.66-8.32-2.51-.82-5.08-.82-7.69-.67-1.53.09-1.88.72-1.82,2.19.13,3.25.04,6.5.04,9.75Z"/>
      <path class="cls-3" d="M475.28,207.52c0,4.38-.98,8.42-4.17,11.65-6.93,7.02-18.9,4.18-21.89-5.22-1.39-4.36-1.32-8.73.38-13.01,2.34-5.9,7.58-9.01,14.07-8.39,5.62.53,10.15,4.92,11.27,10.89.25,1.35.35,2.71.33,4.08ZM452.45,208.65c-.08,1.89.56,4.52,2,6.92,3.33,5.53,10.92,5.7,14.5.34,3.01-4.52,3.01-11.82,0-16.38-3.08-4.67-9.48-5.27-13.3-1.19-2.47,2.63-3.15,5.92-3.2,10.3Z"/>
      <path class="cls-3" d="M413.2,249.62c.07,4.36-.84,8.11-3.47,11.27-5.76,6.93-18.75,6.35-22.41-4.1-1.65-4.73-1.52-9.45.48-14.06,2.41-5.55,7.91-8.5,14.22-7.7,5.44.69,9.76,5.02,10.84,10.84.25,1.35.36,2.71.33,3.75ZM390.41,250.02c-.05,3.09.55,5.86,2.22,8.33,3.53,5.23,10.87,5.29,14.22-.04,3.07-4.88,3.09-10.09.65-15.23-1.54-3.24-4.19-5.02-7.89-4.96-3.64.06-6.09,1.95-7.69,5.09-1.12,2.18-1.54,4.53-1.51,6.82Z"/>
      <path class="cls-3" d="M430.03,234.95c7.11.01,12.4,4.93,13.18,12.18.43,4.03.1,7.93-1.86,11.53-2.82,5.18-7.72,7.15-12.31,6.71-6.5-.62-10.4-3.91-11.95-9.68-1.44-5.34-1.02-10.5,2.1-15.18,2.54-3.81,6.26-5.59,10.84-5.56ZM420.49,250.27c-.02,2.94.64,5.69,2.29,8.16,3.34,5.01,10.58,5.11,14.03.19,3.3-4.71,3.28-12.27-.03-16.95-3.4-4.82-10.48-4.8-13.85.04-1.79,2.57-2.44,5.47-2.43,8.56Z"/>
      <path class="cls-3" d="M509.5,206.92c3.55-4.37,6.96-8.5,10.29-12.7.69-.88,1.38-1.28,2.48-1.18.98.08,1.96.02,3.31.02-1.5,1.79-2.81,3.36-4.13,4.91-1.86,2.19-3.71,4.4-5.63,6.54-.65.72-.73,1.22-.15,2.05,3.35,4.85,6.63,9.74,9.94,14.62.23.34.7.71.53,1.09-.23.51-.84.16-1.28.25-2.25.46-3.56-.53-4.73-2.47-2.23-3.71-4.79-7.23-7.16-10.86-.57-.87-.87-.9-1.64-.14-1.46,1.42-2.02,3-1.87,5.03.17,2.35,0,4.71.06,7.07.03,1-.17,1.42-1.3,1.4-2.66-.05-2.66.01-2.66-2.7,0-8.44.02-16.88-.03-25.32,0-1.17.29-1.53,1.48-1.49,2.48.08,2.48.02,2.48,2.46v11.44Z"/>
      <path class="cls-3" d="M373.76,165.32c0-4.48.04-8.96-.03-13.45-.02-1.09.32-1.34,1.36-1.32,4.49.05,8.97.09,13.46-.01,1.5-.03,1.26.81,1.29,1.7.03.91.07,1.61-1.28,1.56-3.21-.1-6.42-.01-9.63-.05-.85,0-1.29.14-1.26,1.14.07,2.36.06,4.72,0,7.08-.02.87.26,1.13,1.13,1.12,3.02-.05,6.05.06,9.07-.05,1.44-.06,1.2.77,1.2,1.6,0,.82.25,1.67-1.19,1.62-3.02-.11-6.04,0-9.07-.05-.86-.01-1.15.25-1.13,1.12.05,2.74.06,5.47,0,8.21-.03,1.06.41,1.23,1.33,1.22,3.35-.04,6.71.07,10.06-.05,1.67-.06,1.33.95,1.4,1.91.07,1.03-.14,1.49-1.35,1.47-4.67-.08-9.35-.06-14.03,0-1.04.01-1.37-.24-1.35-1.32.06-4.48.03-8.96.03-13.45Z"/>
      <path class="cls-3" d="M352.22,165.3c0-4.48.02-8.96-.02-13.45,0-.95.2-1.31,1.24-1.3,4.53.05,9.07.09,13.6-.01,1.52-.03,1.22.86,1.26,1.72.05.94.01,1.58-1.3,1.54-3.21-.1-6.42,0-9.63-.05-.89-.01-1.26.2-1.23,1.17.06,2.36.06,4.72,0,7.08-.02.91.33,1.1,1.15,1.09,3.02-.04,6.05.06,9.07-.05,1.45-.05,1.15.82,1.17,1.62.02.85.2,1.65-1.21,1.6-2.92-.11-5.86.02-8.78-.06-1.16-.03-1.43.36-1.4,1.44.07,2.64.06,5.28,0,7.93-.02.93.29,1.21,1.21,1.2,3.4-.05,6.8.06,10.2-.05,1.68-.05,1.29.99,1.38,1.93.1,1.07-.2,1.46-1.38,1.45-4.67-.07-9.35-.06-14.03,0-1.08.01-1.34-.3-1.33-1.35.06-4.48.02-8.96.02-13.45Z"/>
      <path class="cls-3" d="M386.48,207.67c0-4.43.03-8.87-.02-13.3-.01-1.07.3-1.35,1.35-1.34,4.44.06,8.88.09,13.31-.01,1.48-.03,1.25.8,1.28,1.68.03.91.07,1.59-1.27,1.54-3.16-.11-6.33,0-9.49-.06-1-.02-1.29.31-1.26,1.28.06,2.26.08,4.53,0,6.79-.04,1.12.38,1.33,1.38,1.31,2.88-.06,5.76.05,8.64-.05,1.31-.05,1.45.49,1.42,1.57-.03.98.03,1.67-1.36,1.62-2.97-.11-5.95,0-8.92-.06-1.01-.02-1.16.4-1.14,1.25.04,2.69.05,5.38,0,8.07-.02,1,.31,1.29,1.29,1.28,3.4-.05,6.8.05,10.2-.05,1.48-.04,1.28.83,1.29,1.73.01.89.1,1.63-1.26,1.61-4.72-.08-9.44-.06-14.16,0-.99,0-1.29-.28-1.28-1.27.05-4.53.02-9.06.02-13.58Z"/>
      <path class="cls-3" d="M370.87,217.85c1.06-3.24,2.02-6.47,3.14-9.66,1.62-4.62,3.23-9.25,4.76-13.9.33-1,.79-1.28,1.8-1.26,2.82.05,2.8,0,1.82,2.73-3,8.38-6,16.76-8.94,25.16-.42,1.21-.94,1.7-2.29,1.62-3.15-.18-2.38.48-3.35-2.43-2.85-8.53-5.61-17.09-8.47-25.61-.42-1.25-.15-1.5,1.1-1.47,2.69.07,2.71,0,3.51,2.54,2.34,7.4,4.79,14.77,6.92,22.29Z"/>
      <path class="cls-3" d="M416.92,192.52c1.77-.05,3.47.25,5.12.88.81.31,1.2.67.82,1.67-.7,1.85-.61,1.83-2.43,1.26-1.91-.6-3.85-.93-5.85-.4-1.72.46-3.01,1.44-3.39,3.23-.42,1.94.26,3.52,1.9,4.67,1.25.87,2.67,1.38,4.06,1.99,1.16.51,2.35,1.01,3.41,1.7,3.21,2.09,4.41,5.18,3.61,8.93-.69,3.22-3.68,5.78-7.37,6.34-3.15.48-6.2.13-9.14-1.12-.46-.2-1.14-.36-.97-1.01.23-.89.28-1.91.96-2.6.27-.27.67.19,1,.34,2.55,1.16,5.19,1.74,7.97,1.03,2.12-.54,3.51-1.85,3.8-4.06.27-2.05-.55-3.66-2.28-4.83-1.19-.8-2.51-1.3-3.82-1.82-1.49-.6-2.93-1.29-4.21-2.29-4.41-3.43-3.85-10.01,1.08-12.64,1.76-.94,3.26-1.27,5.73-1.27Z"/>
      <path class="cls-3" d="M493.99,192.53c2.06-.1,4.01.2,5.9.85,1.76.6.41,1.69.35,2.55-.06.95-.61.91-1.39.62-2.49-.9-5.08-1.05-7.66-.53-5.02,1.03-8.2,4.81-8.57,10.08-.13,1.89-.11,3.77.37,5.62,1.69,6.49,7.1,8.42,12.49,7.88,1.26-.13,2.53-.33,3.72-.83.62-.26.96-.21,1.07.52.08.51.25,1,.4,1.5.16.54.05.94-.52,1.1-5.7,1.66-11.3,1.93-16.37-1.77-4.24-3.1-5.44-7.68-5.36-12.63.11-7.02,3.99-12.34,10.19-14.27,1.77-.55,3.58-.84,5.38-.71Z"/>
      <path class="cls-3" d="M486.28,234.97c1.75-.06,3.39.24,5.02.8,1.01.35,1.44.81.88,1.85-.15.29-.24.61-.32.93-.18.75-.46.94-1.26.57-2.15-1-4.41-1.33-6.75-.73-1.87.48-3.08,1.65-3.41,3.55-.31,1.8.48,3.21,1.93,4.26,1.27.93,2.73,1.49,4.17,2.06,1.14.45,2.26.96,3.29,1.62,3.21,2.07,4.52,5.25,3.7,8.91-.77,3.45-3.82,6.01-7.72,6.48-3,.36-5.92.1-8.71-1.13-.44-.19-1.15-.29-1.06-.96.13-.92.3-1.88.88-2.63.26-.34.67.1,1,.25,2.54,1.17,5.16,1.8,7.95,1.09,1.92-.49,3.36-1.58,3.77-3.59.43-2.16-.17-3.99-2.1-5.29-1.19-.8-2.5-1.31-3.82-1.83-1.45-.57-2.85-1.24-4.1-2.19-4.69-3.56-4.09-10.27,1.18-12.93,1.72-.87,3.56-1.19,5.45-1.09Z"/>
      <path class="cls-3" d="M558.85,250.37c-.03,6.07,2.77,10.08,7.94,11.38,2.72.68,5.42.4,8.1-.34.62-.17,1.49-.91,1.65.49.11.96,1.23,2.14-.73,2.63-5.91,1.46-11.6,1.63-16.58-2.59-2.94-2.5-4.18-5.89-4.48-9.61-.5-6.25,1.2-11.67,6.78-15.14,4.51-2.81,9.47-2.79,14.49-1.43,1.12.3,1.03.89.76,1.8-.36,1.21-.57,1.91-2.23,1.29-2.79-1.04-5.75-.97-8.61,0-4.12,1.41-6.79,5.14-7.07,9.83-.03.56,0,1.13,0,1.7Z"/>
      <path class="cls-3" d="M366.67,250.01c0-4.43.03-8.87-.02-13.3-.01-1.04.23-1.38,1.32-1.37,4.44.06,8.87.05,13.31,0,.97-.01,1.32.25,1.28,1.26-.1,2.52.27,2.04-2.12,2.07-2.93.03-5.85.03-8.78,0-.77,0-1.09.19-1.08,1.02.05,2.55.05,5.09,0,7.64-.02.93.39,1.08,1.19,1.07,2.88-.03,5.76.05,8.64-.04,1.64-.05,1.16,1.04,1.25,1.9.09.93-.05,1.47-1.24,1.44-2.88-.09-5.76,0-8.64-.05-.94-.02-1.21.28-1.2,1.2.05,3.58-.01,7.17.04,10.75.01.99-.16,1.42-1.3,1.4-2.66-.05-2.66.01-2.66-2.7,0-4.1,0-8.21,0-12.31Z"/>
      <path class="cls-3" d="M330.96,165.37c0-4.48.03-8.96-.02-13.43-.01-.99.16-1.41,1.29-1.39,4.48.07,8.97.08,13.45,0,1.44-.03,1.15.84,1.16,1.64.01.83.24,1.66-1.19,1.61-3.16-.11-6.32,0-9.48-.05-.98-.02-1.31.27-1.28,1.27.07,2.45.07,4.9,0,7.35-.03,1.01.32,1.28,1.29,1.26,2.88-.06,5.76.06,8.63-.05,1.44-.06,1.18.8,1.19,1.62,0,.83.25,1.66-1.19,1.6-2.87-.12-5.76,0-8.63-.06-.97-.02-1.3.23-1.29,1.25.06,3.63,0,7.26.04,10.89.01.9-.22,1.22-1.18,1.22-2.78,0-2.78.05-2.78-2.7,0-4.01,0-8.01,0-12.02Z"/>
      <path class="cls-3" d="M435.18,209.24c0-3.78-.06-7.55.03-11.33.04-1.4-.43-1.77-1.77-1.7-2.03.11-4.06,0-6.09.04-.8.02-1.2-.13-1.18-1.07.07-2.69-.18-2.17,2.18-2.18,6.09-.03,12.19.04,18.28-.05,1.49-.02,1.38.72,1.41,1.72.03,1.03-.03,1.67-1.38,1.59-2.07-.12-4.16.04-6.23-.06-1.23-.06-1.47.38-1.46,1.52.05,7.74.03,15.48,0,23.22,0,.51.35,1.34-.39,1.47-1.04.18-2.18.31-3.2-.1-.4-.16-.2-.78-.21-1.18-.01-3.96,0-7.93,0-11.89Z"/>
      <path class="cls-3" d="M330.96,207.77c0-4.43.03-8.86-.02-13.29-.01-1.03.15-1.5,1.36-1.47,2.59.08,2.6,0,2.6,2.63,0,7.35.03,14.7-.03,22.06-.01,1.28.38,1.58,1.59,1.55,3.21-.08,6.42.06,9.62-.06,1.58-.06,1.28.86,1.34,1.78.07,1.06-.09,1.6-1.4,1.57-4.57-.09-9.15-.06-13.73-.01-1.03.01-1.38-.23-1.36-1.32.06-4.48.03-8.95.03-13.43Z"/>
      <path class="cls-3" d="M355.43,207.81c0,4.43-.02,8.87.02,13.3,0,.98-.16,1.44-1.3,1.42-2.53-.04-2.53.02-2.53-2.55,0-8.44.03-16.89-.03-25.33,0-1.32.37-1.8,1.65-1.6.28.04.57.04.85,0,1.04-.15,1.38.24,1.37,1.32-.06,4.48-.02,8.96-.02,13.44Z"/>
      <path class="cls-3" d="M520.96,250.29c0,4.44-.04,8.87.03,13.31.02,1.16-.37,1.43-1.46,1.41-2.34-.06-2.35,0-2.35-2.3,0-8.54.03-17.08-.03-25.62,0-1.31.35-1.81,1.64-1.61.32.05.66.04.99,0,.96-.12,1.2.34,1.19,1.23-.03,4.53-.02,9.06-.02,13.59Z"/>
      <path class="cls-3" d="M497.44,270.22c-.96.16-1.06-.19-.9-.69.95-3.01,1.74-6.06,2.26-9.18.08-.45.36-.64.77-.67.47-.04.94-.04,1.41-.1q2.36-.29,1.58,2.03c-.78,2.32-1.72,4.58-2.64,6.85-.56,1.37-1.44,1.85-2.48,1.76Z"/>
      <path class="cls-3" d="M427.27,174.5c-.99,3.51-2.23,6.75-3.73,9.9-.57,1.19-1.73.97-2.72.97-.52,0-.29-.52-.21-.78.95-2.96,1.71-5.97,2.2-9.04.11-.66.59-.68,1.03-.74,1.07-.13,2.15-.2,3.43-.32Z"/>
      <path class="cls-3" d="M583.34,259.88c1.52-.01,2.63,1.1,2.66,2.68.03,1.57-1.15,2.86-2.66,2.89-1.45.04-2.6-1.16-2.63-2.72-.03-1.65,1.07-2.84,2.63-2.85Z"/>
      <path class="cls-1" d="M175.88,226.92c-25.86,0-46.89-20.98-46.86-46.76.03-26,21.06-46.92,47.27-46.79,26.54.13,47.07,22.25,46.49,47.84-.57,25.07-21.31,45.87-46.89,45.71Z"/>
      <path class="cls-1" d="M338.93,262.46c-2.84.01-5.2-1.65-5.9-4.16-.73-2.62.61-5.94,2.88-7.26.53-.31.85-.21,1.21.19,2.38,2.67,4.75,5.35,7.15,8,.48.54.29.86-.16,1.28-1.17,1.08-3.39,1.95-5.18,1.96Z"/>
      <path class="cls-1" d="M342.95,241.37c-.01,2.02-2.56,5.14-4.49,5.51-.34.07-.53-.06-.71-.3-1.48-1.88-2.19-3.98-1.58-6.35.45-1.76,2.21-2.88,3.87-2.62,1.83.28,2.92,1.69,2.91,3.76Z"/>
      <path class="cls-1" d="M452.19,250.28c0-3.49,0-6.97,0-10.46,0-.56-.09-1.16.74-1.25,4.08-.44,8.11-.56,11.66,2.03,2.39,1.73,3.45,4.23,3.73,7.02.4,4.04-.03,7.95-3.01,11.08-2.92,3.07-6.75,3.54-10.69,3.37-2.44-.11-2.44-.26-2.44-2.74,0-3.02,0-6.03,0-9.05Z"/>
      <path class="cls-1" d="M399.24,165.46c0-3.25.09-6.5-.04-9.75-.06-1.46.29-2.1,1.82-2.19,2.61-.15,5.18-.16,7.69.67,4.02,1.32,6.12,4.27,6.66,8.32.29,2.14.22,4.33-.33,6.45-1.32,5.09-5.26,8.07-10.96,8.26-1.08.04-2.17-.05-3.25.01-1.18.06-1.66-.31-1.62-1.6.09-3.39.03-6.78.03-10.17Z"/>
      <path class="cls-1" d="M452.45,208.65c.05-4.39.74-7.68,3.2-10.3,3.83-4.08,10.22-3.48,13.3,1.19,3.01,4.55,3,11.85,0,16.38-3.57,5.36-11.16,5.19-14.5-.34-1.45-2.4-2.08-5.03-2-6.92Z"/>
      <path class="cls-1" d="M390.41,250.02c-.04-2.29.39-4.63,1.51-6.82,1.6-3.14,4.05-5.03,7.69-5.09,3.7-.06,6.35,1.73,7.89,4.96,2.45,5.15,2.42,10.35-.65,15.23-3.35,5.33-10.69,5.27-14.22.04-1.67-2.47-2.27-5.24-2.22-8.33Z"/>
      <path class="cls-1" d="M420.49,250.27c0-3.09.65-5.99,2.43-8.56,3.38-4.85,10.45-4.86,13.85-.04,3.31,4.68,3.32,12.24.03,16.95-3.45,4.93-10.69,4.83-14.03-.19-1.65-2.48-2.31-5.23-2.29-8.17Z"/>
    </g>
  </g>
</svg>